<svg width="11" height="15" viewBox="0 0 11 15" fill="none" xmlns="http://www.w3.org/2000/svg">
<path d="M3.99549 5.99102C4.22018 6.15956 5.06292 6.25318 5.37451 6.2438C5.45035 6.24151 5.4988 6.21074 5.52919 6.16583C5.55969 6.21074 5.60808 6.24151 5.68387 6.2438C5.99552 6.25318 6.8382 6.15956 7.06298 5.99102C7.28772 5.82248 7.10041 5.49474 7.1379 5.32621C7.17532 5.15762 7.63412 4.59581 8.04616 4.5771C8.45814 4.55838 9.19787 4.85803 9.40389 5.54155C9.60985 6.22514 9.55366 6.92738 9.02933 7.21764C8.50496 7.5079 8.00873 7.3487 7.91505 7.21764C7.82143 7.08659 7.42816 7.09592 7.27833 7.29255C7.12851 7.48919 6.60413 7.83564 6.60413 8.04166C6.60413 8.05214 6.60424 8.06272 6.60435 8.07336C6.49594 8.02197 6.36522 8.00063 6.30105 8.14544C6.18058 8.41753 5.95449 9.19867 6.01478 9.46154C6.07496 9.72441 6.46091 9.6441 6.54559 9.78066C7.11203 10.6943 6.53582 11.4351 5.95165 11.6469C5.94456 11.5054 5.8877 10.3578 5.89622 10.1516C5.90544 9.93037 5.95296 8.18505 5.9535 8.16743C5.95438 8.1348 5.966 8.10446 5.98706 8.07991C6.40897 7.58641 6.68527 7.26555 6.70409 7.24569C6.72455 7.23194 6.81555 7.20864 6.87579 7.19331C6.9333 7.17858 6.99277 7.16335 7.03614 7.14759C7.09627 7.12571 7.28908 6.98331 7.7272 6.65114C7.92782 6.49903 8.1352 6.34173 8.19145 6.30807C8.33636 6.22105 8.95546 5.88632 9.00931 5.86581L8.98628 5.7946L8.96844 5.72182C8.90903 5.73639 8.20209 6.12699 8.11436 6.17964C8.05118 6.2175 7.85913 6.36312 7.63674 6.53177C7.39951 6.71165 7.04089 6.98347 6.98496 7.00682C6.94852 7.02008 6.8927 7.03432 6.83869 7.04807C6.71129 7.0807 6.63747 7.10083 6.60179 7.13662C6.57227 7.16608 6.18931 7.61288 5.87325 7.98247C5.83025 8.03272 5.80559 8.09682 5.80368 8.16328C5.80325 8.1809 5.75572 9.92524 5.74656 10.1453C5.73712 10.3709 5.80008 11.6162 5.8027 11.6691L5.89916 11.6642C5.77667 11.7019 5.65544 11.7164 5.54578 11.7032C5.44211 11.6908 5.34085 11.6716 5.24297 11.6468H5.25017C5.25186 11.1069 5.26223 9.67143 5.28956 9.51528C5.31919 9.34582 5.30146 8.5434 5.29245 8.20622C5.29087 8.14806 5.27221 8.09219 5.23833 8.04456C4.83704 7.48226 4.58361 7.18016 4.48513 7.14666C4.45261 7.13564 4.41938 7.12565 4.38457 7.11507C4.27278 7.0813 4.14619 7.04305 3.9654 6.94566C3.86881 6.89366 3.55662 6.68148 3.22613 6.45696C2.57625 6.01525 2.1744 5.74539 2.07451 5.72171L2.03966 5.86744C2.12729 5.89134 2.7379 6.30622 3.14192 6.58082C3.49023 6.8175 3.79095 7.02188 3.89449 7.07764C4.08847 7.18212 4.22853 7.22446 4.3412 7.25845C4.37437 7.26849 4.40591 7.27809 4.4357 7.28808C4.49184 7.31356 4.72874 7.58838 5.11633 8.13147C5.13281 8.15466 5.14198 8.18188 5.14263 8.2102C5.15698 8.74505 5.16435 9.36191 5.14198 9.48942C5.10919 9.67645 5.10155 11.319 5.10051 11.6058C4.65519 11.4588 4.31566 11.1713 4.27453 10.7345C4.22051 10.1602 4.53347 9.78175 4.67734 9.7488C4.82122 9.71579 4.95549 9.36437 4.84457 9.15704C4.73376 8.94971 4.63255 8.35408 4.45965 8.27578C4.45048 8.27158 4.44121 8.26743 4.43188 8.2634C4.45157 8.19492 4.4543 8.11707 4.4543 8.04166C4.4543 7.83564 3.92991 7.48919 3.78015 7.29255C3.63032 7.09592 3.23704 7.08659 3.14337 7.21764C3.04977 7.3487 2.55351 7.5079 2.02915 7.21764C1.50476 6.92738 1.4486 6.22514 1.65459 5.54155C1.86057 4.85803 2.60033 4.55838 3.0123 4.5771C3.42434 4.59581 3.88313 5.15762 3.9206 5.32621C3.95804 5.49474 3.77075 5.82248 3.99549 5.99102Z" fill="white"/>
<path d="M9.3334 8.66553C9.8414 8.5138 9.72334 7.94817 9.6697 7.76359L9.19678 8.24356C9.25898 8.25256 9.30251 8.26669 9.3137 8.28535C9.33301 8.31743 9.33902 8.46867 9.3334 8.66553Z" fill="#00A650"/>
<path d="M9.80032 9.29661C10.0165 8.91823 10.0766 8.39997 10.0809 7.46093L9.94992 7.52673C9.98031 7.89692 9.94555 8.18767 9.8378 8.53484C9.76802 8.75946 9.50596 8.89761 9.31713 8.97012C9.2934 9.29186 9.24702 9.6357 9.18237 9.7835C9.05126 10.0831 9.57564 9.68988 9.80032 9.29661Z" fill="#00A650"/>
<path d="M10.7367 6.74959C10.718 6.48737 10.5801 6.12777 10.4899 6.41994C10.4364 6.59306 10.3557 6.91578 10.3024 7.34942C10.2658 7.64776 10.2421 7.99809 10.2498 8.39027C10.2685 9.35265 10.09 9.53598 9.51442 10.0155C8.93887 10.495 8.7891 10.6261 8.7891 10.6261C8.7891 10.6261 9.14538 9.2144 9.10768 8.87154C9.08787 8.69117 9.0374 8.54702 8.95998 8.48346C8.89031 8.42628 8.79881 8.4343 8.68729 8.54287C8.45197 8.77208 8.26991 10.2329 8.06132 10.6448C7.85274 11.0568 7.64487 11.4963 7.64487 11.4963C7.64487 11.4963 7.23103 12.4099 7.64487 12.651C8.0587 12.8921 8.14229 12.9108 9.00876 11.8996C9.87523 10.8883 10.6805 10.2516 10.7367 9.37142C10.7929 8.4912 10.7554 7.01181 10.7367 6.74959Z" fill="#00A650"/>
<path d="M1.66681 8.66553C1.66119 8.46867 1.66719 8.31743 1.68649 8.28535C1.69767 8.26669 1.74126 8.25256 1.80342 8.24356L1.3305 7.76359C1.27686 7.94817 1.15879 8.5138 1.66681 8.66553Z" fill="white"/>
<path d="M1.81744 9.7835C1.7528 9.6357 1.70641 9.29186 1.68271 8.97012C1.49385 8.89761 1.23177 8.75946 1.16202 8.53484C1.05424 8.18767 1.0195 7.89692 1.04987 7.52673L0.918945 7.26779C0.923234 8.20688 0.983266 8.91823 1.19948 9.29661C1.42418 9.68988 1.94856 10.0831 1.81744 9.7835Z" fill="white"/>
<path d="M3.35539 12.6515C3.76924 12.4104 3.35539 11.4967 3.35539 11.4967C3.35539 11.4967 3.14753 11.0573 2.93894 10.6453C2.73033 10.2334 2.54828 8.77257 2.31299 8.54336C2.20149 8.43479 2.10999 8.42677 2.0403 8.48394C1.96287 8.54751 1.91242 8.69165 1.8926 8.87203C1.85488 9.21489 2.21116 10.6266 2.21116 10.6266C2.21116 10.6266 2.0614 10.4955 1.48585 10.0159C0.910304 9.53646 0.731772 9.35314 0.750464 8.39076C0.758135 7.99858 0.734413 7.64825 0.697819 7.34991C0.64458 6.91627 0.563869 6.59354 0.510378 6.42043C0.420119 6.12826 0.282289 6.48786 0.263575 6.75008C0.244823 7.01229 0.207373 8.49169 0.263575 9.37191C0.319734 10.2521 1.12503 10.8888 1.99149 11.9001C2.85802 12.9113 2.94154 12.8926 3.35539 12.6515Z" fill="#00A650"/>
<path d="M2.73421 3.37293C2.73421 3.37293 2.79661 3.36049 2.87152 3.27936C2.94644 3.19823 3.50202 2.23682 3.6019 2.03086C3.70175 1.82489 3.82036 1.86232 3.82036 1.86232L3.84536 1.94967C3.8703 2.24304 3.54571 2.68634 3.38341 2.84239C3.2211 2.99843 3.38341 3.11704 3.38341 3.11704C3.38341 3.11704 3.46455 3.07328 3.67676 2.79863C3.88903 2.52397 3.96397 2.03086 3.96397 2.03086L4.0451 1.93096H4.17021C4.17583 1.94498 4.18374 1.96309 4.19492 1.98716C4.27605 2.16191 4.07004 2.58017 3.95772 2.76747C3.84536 2.95473 3.95772 2.961 3.95772 2.961C4.3705 2.66752 4.35097 1.88726 4.31354 1.81234C4.27605 1.73743 4.11379 1.78114 4.03885 1.74998C3.96397 1.71872 4.03885 1.5689 4.03885 1.5689C4.03885 1.5689 4.35097 1.48777 4.33847 1.53141C4.32598 1.57512 4.38845 1.6688 4.50603 1.72494C4.62366 1.78114 4.82542 1.73121 4.82542 1.73121L4.84414 1.84355L4.90655 1.88726C4.91905 2.66757 5.16244 2.72999 5.40589 2.961C5.64939 3.1919 5.94898 3.24188 5.94898 3.24188C5.86163 3.46655 5.96153 3.84738 5.96153 3.84738C5.96153 3.84738 6.11757 3.91607 6.2424 3.80368C6.36729 3.69134 6.31109 3.24187 6.31109 3.21689C6.31109 3.1919 6.21119 3.3792 6.21119 3.3792L6.14234 3.21689C6.07354 3.05462 6.00523 2.78619 6.00523 2.78619C6.00523 2.78619 5.93032 2.59266 6.08014 2.74249C6.22991 2.89231 6.2424 2.89853 6.2861 2.8049C6.32981 2.71128 6.24868 2.41791 6.24868 2.41791C6.24868 2.41791 6.2424 2.38043 6.29232 2.39914C6.3423 2.41791 6.45464 2.5129 6.45464 2.5129C6.45464 2.5129 6.47963 2.36793 6.52333 2.39287C6.56703 2.41791 6.57325 2.46783 6.62318 2.6051C6.67315 2.74249 6.76056 2.6738 6.76056 2.6738C6.76056 2.6738 6.74179 2.58017 6.76678 2.42413C6.79177 2.26809 6.89783 2.38664 6.89783 2.38664C6.92904 2.71128 7.20375 2.99843 7.20375 2.99843C7.32859 2.79241 7.01645 2.16819 7.01645 2.16819C7.01645 2.16819 6.94153 2.13698 6.773 2.13698C6.60446 2.13698 6.24868 2.19939 6.24868 2.19939C6.24868 2.19939 6.14878 2.1869 5.98646 1.98716C5.82414 1.78741 5.89906 1.69373 5.89906 1.69373C5.89906 1.69373 5.96775 1.68751 6.03638 1.70628C6.10507 1.72494 6.20497 1.92474 6.3423 2.01209C6.47963 2.09955 6.66061 1.96839 6.78555 1.83111C6.91038 1.69373 6.91038 1.37537 6.91038 1.37537C6.90285 1.25354 6.89527 1.13165 6.88779 1.00977C6.88288 0.930217 6.94443 0.861308 7.02414 0.859725C7.10385 0.858198 7.19382 0.862943 7.2911 0.879148C7.59293 0.929398 7.8103 1.06405 7.92787 1.15069C7.87888 1.07305 7.47524 0.676785 7.04766 0.507703C6.89079 0.445668 6.76585 0.545731 6.68919 0.639575C6.63387 0.707229 6.6127 0.796817 6.62983 0.882531C6.69912 1.22861 6.67217 1.49852 6.60446 1.60011C6.52955 1.7125 6.2424 1.67502 6.2424 1.67502C6.05515 1.53769 5.98024 0.925961 5.98024 0.688734C5.98024 0.45156 5.83855 0.264747 5.51828 0.27675C5.19807 0.288753 5.09386 0.526472 5.09386 0.526472C5.09386 0.526472 5.21869 0.576394 5.36846 0.776139C5.51828 0.975883 5.43087 1.60011 5.43087 1.60011L5.35596 1.57512C5.35596 1.57512 5.30604 1.67502 5.09386 1.67502C4.88156 1.67502 4.60691 1.45028 4.60691 1.11327C4.60691 0.776139 4.52447 0.529091 4.50706 0.526472C4.14495 0.47022 3.85158 0.85105 3.62684 0.919742C3.4021 0.988378 3.37717 1.11327 3.37717 1.11327C3.66431 1.18185 3.8703 0.988378 4.09501 0.838555C4.31976 0.688733 4.34469 0.782358 4.34469 0.782358C4.38217 1.04457 4.28233 1.20062 4.28233 1.20062C4.10126 1.16941 4.15124 1.04457 4.15124 1.04457C4.15124 1.04457 3.99517 1.06951 3.79536 1.24432C3.59562 1.41908 3.30225 1.43162 3.30225 1.43162C3.30847 1.62509 3.52075 1.5689 3.52075 1.5689L3.45832 1.69373C3.33347 1.6688 3.28978 1.76242 3.28978 1.76242C3.33972 1.88726 3.52075 1.84355 3.52075 1.84355L3.50202 1.91852C3.29603 2.0433 2.85906 2.91724 2.73421 3.12954C2.60934 3.34172 2.73421 3.37293 2.73421 3.37293Z" fill="#00A650"/>
<path d="M4.64505 2.56455C4.69813 2.70499 4.76988 2.67378 4.76988 2.67378C4.76988 2.67378 4.83235 2.38041 4.76988 2.19316C4.70752 2.00586 4.68875 1.98092 4.68875 1.98092C4.68875 1.98092 4.5577 1.92473 4.5015 2.04328C4.4453 2.1619 4.3017 2.61764 4.31425 2.71748L4.32669 2.81738C4.32669 2.81738 4.52851 2.76037 4.55557 2.39247C4.58263 2.02457 4.64505 2.26185 4.64505 2.26185C4.64505 2.26185 4.60265 2.45221 4.64505 2.56455Z" fill="#00A650"/>
<path d="M7.28545 1.84961C7.38535 1.78719 7.45087 1.89325 7.45087 1.89325C7.48519 1.82467 7.39779 1.72472 7.39779 1.72472C7.39779 1.72472 7.46648 1.64986 7.57887 1.74976C7.69121 1.84961 7.77927 1.84333 7.77927 1.84333C7.71751 1.78719 7.66 1.51875 7.66 1.51875C7.72657 1.50004 7.79318 1.48132 7.85975 1.46256C7.71325 1.20132 7.56065 1.11261 7.44482 1.08145C7.29745 1.0419 7.042 1.05057 7.042 1.05057C7.03687 1.10279 7.0324 1.17966 7.03883 1.2722C7.04691 1.38683 7.06693 1.45743 7.07943 1.52497C7.09716 1.62029 7.10894 1.75784 7.07943 1.93701C7.07943 1.93701 7.1856 1.91202 7.28545 1.84961Z" fill="#00A650"/>
<path d="M7.72814 3.17285C7.72814 3.17285 7.84048 3.1292 7.68443 2.86077C7.52839 2.59233 7.45894 2.43629 7.425 2.23649C7.39106 2.03675 7.21631 2.11166 7.21631 2.11166C7.21631 2.11166 7.27245 2.87943 7.72814 3.17285Z" fill="#00A650"/>
<path d="M7.68509 2.12411C7.68509 2.12411 7.64766 2.72962 8.02844 3.03549C8.40927 3.34135 8.44048 3.37256 8.44048 3.37256C8.44048 3.37256 8.42793 3.21652 8.20325 2.84824C7.97852 2.4799 7.85368 2.20524 7.68509 2.12411Z" fill="#00A650"/>
<path d="M5.57476 3.81587C5.64967 3.80343 5.64967 3.34774 5.64967 3.34774C5.64967 3.34774 5.50607 3.36646 5.4125 3.25412C5.31882 3.14173 5.2002 3.1355 5.17527 3.21664C5.15028 3.29777 4.90061 3.75351 5.2564 3.95947C5.2564 3.95947 5.38123 3.87212 5.49363 3.95947C5.49363 3.95947 5.49985 3.82842 5.57476 3.81587Z" fill="#00A650"/>
<path d="M6.61798 3.59151C6.56805 3.71013 6.66795 3.83496 6.66795 3.83496H6.78657C6.78657 3.83496 6.78657 3.74128 6.89885 3.76005C7.01125 3.77876 7.11115 3.73506 7.11115 3.73506C7.11115 3.73506 7.07988 3.72262 6.99171 3.62272C6.90354 3.52288 6.77173 3.48398 6.78657 3.50411C6.85515 3.59779 6.80523 3.66954 6.80523 3.66954L6.61798 3.59151Z" fill="#00A650"/>
<path d="M6.19913 4.69002C6.20535 4.68791 6.20147 4.68306 6.19092 4.67753C6.19189 4.68791 6.19371 4.69179 6.19913 4.69002Z" fill="#00A650"/>
<path d="M6.00569 4.12831C6.00569 4.12831 5.96199 4.0971 5.95572 4.30934C5.94944 4.52158 5.88086 4.61526 5.88086 4.61526C5.88086 4.61526 5.94944 4.65274 6.0494 4.65274C6.11732 4.65274 6.16997 4.66704 6.19136 4.67822C6.18907 4.65236 6.19338 4.57996 6.16173 4.42174C6.11803 4.20322 6.00569 4.12831 6.00569 4.12831Z" fill="#00A650"/>
<path d="M5.57454 4.49012C5.57454 4.49012 5.70564 4.50267 5.75557 4.40845C5.80554 4.31417 5.75557 4.12648 5.75557 4.12648C5.75557 4.12648 5.69937 4.16554 5.57454 4.20297C5.4497 4.24046 5.51834 4.49072 5.51834 4.49072L5.57454 4.49012Z" fill="#00A650"/>
<path d="M5.19397 4.40865C5.13149 4.55901 5.06689 4.60894 5.06689 4.60894C5.06689 4.60894 5.19397 4.69012 5.3063 4.60894C5.4187 4.52775 5.35825 4.45219 5.35825 4.45219V4.25942C5.34379 4.25942 5.25638 4.25822 5.19397 4.40865Z" fill="#00A650"/>
<path d="M1.6736 13.4918C1.67338 13.492 2.1939 13.1466 2.62755 12.9984C2.4862 12.8153 2.2101 12.6902 1.89211 12.6902C1.43091 12.6902 1.05566 12.9526 1.05566 13.2752C1.05566 13.425 1.29441 13.6885 1.6736 13.4918Z" fill="#00A650"/>
<path d="M9.34902 13.6883C8.69032 13.2977 7.63965 12.8326 6.09516 12.7537L6.09287 12.7665C5.92559 12.7545 5.75586 12.7458 5.58203 12.7427C5.56375 12.7428 5.54613 12.7424 5.52774 12.7426C5.50935 12.7424 5.49173 12.7428 5.47345 12.7427C5.29962 12.7458 5.12989 12.7545 4.9626 12.7665L4.96037 12.7537C3.41584 12.8326 2.36518 13.2977 1.70645 13.6883C1.43019 13.8521 1.294 13.7347 1.29443 13.7351L1.90408 14.4778C2.05448 14.6275 2.29016 14.6472 2.46396 14.5253C3.17317 14.028 4.24596 13.7101 5.44519 13.7101C5.47296 13.7101 5.50008 13.7117 5.52774 13.7121C5.55535 13.7117 5.58252 13.7101 5.61029 13.7101C6.80952 13.7101 7.88228 14.028 8.59151 14.5253C8.76534 14.6472 9.00098 14.6275 9.1514 14.4778L9.76106 13.7351C9.7615 13.7347 9.62531 13.8521 9.34902 13.6883Z" fill="#00A650"/>
<path d="M9.16315 12.6902C8.84523 12.6902 8.5691 12.8153 8.42773 12.9984C8.86143 13.1466 9.38194 13.492 9.38166 13.4918C9.76091 13.6885 9.99967 13.425 9.99967 13.2752C9.99967 12.9526 9.6244 12.6902 9.16315 12.6902Z" fill="#00A650"/>
<path d="M5.63809 0.47914C5.63809 0.508438 5.59438 0.532227 5.54048 0.532227C5.48657 0.532227 5.44287 0.508438 5.44287 0.47914C5.44287 0.449841 5.48657 0.426107 5.54048 0.426107C5.59438 0.426107 5.63809 0.449841 5.63809 0.47914Z" fill="black"/>
<path d="M5.86583 11.7603L5.19163 11.6692L5.22022 8.17276C4.9688 7.76077 4.51546 7.12493 4.03247 7.03038C3.60174 6.94613 2.32838 5.92979 2.16992 5.81276L2.52978 5.32537C3.1081 5.75241 3.44073 6.1596 4.41114 6.53868C4.71237 6.65631 5.19746 7.11565 5.50846 7.40619C5.97069 7.03038 6.10562 6.79539 6.38747 6.74012C6.59208 6.67268 7.82208 5.95101 8.64195 5.38239L8.98126 5.81865C8.11556 6.16565 7.03068 7.02525 6.70676 7.21026C6.58182 7.26531 6.21228 7.74228 5.87903 8.12633L5.86583 11.7603Z" fill="#00ADEF"/>
<path d="M9.22038 8.3901C9.22038 8.3901 9.42481 8.40101 9.53797 8.05275C9.65108 7.7045 9.11426 8.22151 9.11426 8.22151L9.22038 8.3901Z" fill="#231F20"/>
<path d="M10.7369 9.37149C10.6808 10.2517 9.87544 10.8884 9.00897 11.8997C8.1425 12.9109 8.05892 12.8922 7.64508 12.6511C7.23124 12.41 7.64508 11.4963 7.64508 11.4963C7.64508 11.4963 7.85295 11.0569 8.06154 10.6449C8.27012 10.2329 8.45219 8.77215 8.6875 8.54294C8.79903 8.43437 8.89052 8.42635 8.9602 8.48353C9.03762 8.54709 9.08809 8.69124 9.10789 8.87161C9.14559 9.21447 8.78931 10.6262 8.78931 10.6262C8.78931 10.6262 8.93908 10.4951 9.51464 10.0155C10.0902 9.53605 10.2687 9.35272 10.2501 8.39034C10.2424 7.99816 10.266 7.64783 10.3026 7.34949C10.3559 6.91585 10.4366 6.59313 10.4901 6.42001C10.5804 6.12784 10.7182 6.48744 10.7369 6.74966C10.7557 7.01188 10.7931 8.49127 10.7369 9.37149ZM9.99913 13.2748C9.99913 13.4246 9.76038 13.6881 9.38113 13.4914C9.3814 13.4916 8.8609 13.1462 8.4272 12.9981C8.56856 12.8149 8.84469 12.6898 9.16261 12.6898C9.62387 12.6898 9.99913 12.9522 9.99913 13.2748ZM9.15072 14.4776C9.0003 14.6273 8.76465 14.647 8.59082 14.5251C7.8816 14.0278 6.80884 13.7099 5.6096 13.7099C5.58183 13.7099 5.55466 13.7115 5.52705 13.7119C5.49939 13.7115 5.47228 13.7099 5.4445 13.7099C4.24527 13.7099 3.17249 14.0278 2.46327 14.5251C2.28947 14.647 2.05379 14.6273 1.90339 14.4776L1.29375 13.7349C1.29332 13.7345 1.42951 13.8519 1.70576 13.6881C2.36449 13.2975 3.41516 12.8324 4.95968 12.7535L4.96192 12.7663C5.1292 12.7543 5.29894 12.7455 5.47277 12.7425C5.49104 12.7426 5.50867 12.7422 5.52705 12.7424C5.54544 12.7422 5.56306 12.7426 5.58134 12.7425C5.75517 12.7455 5.92491 12.7543 6.09219 12.7663L6.09448 12.7535C7.63897 12.8324 8.68963 13.2975 9.34834 13.6881C9.62463 13.8519 9.76081 13.7345 9.76038 13.7349L9.15072 14.4776ZM1.05501 13.2748C1.05501 12.9522 1.43025 12.6898 1.89146 12.6898C2.20944 12.6898 2.48555 12.8149 2.62689 12.9981C2.19324 13.1462 1.67272 13.4916 1.67294 13.4914C1.29375 13.6881 1.05501 13.4246 1.05501 13.2748ZM0.263071 9.37149C0.206868 8.49127 0.244318 7.01188 0.263071 6.74966C0.281785 6.48744 0.419615 6.12784 0.509874 6.42001C0.563364 6.59313 0.644075 6.91585 0.697315 7.34949C0.733908 7.64783 0.757631 7.99816 0.74996 8.39034C0.731268 9.35272 0.909799 9.53605 1.48535 10.0155C2.06089 10.4951 2.21065 10.6262 2.21065 10.6262C2.21065 10.6262 1.85437 9.21447 1.89209 8.87161C1.91192 8.69124 1.96236 8.54709 2.03979 8.48353C2.10948 8.42635 2.20098 8.43437 2.31249 8.54294C2.54778 8.77215 2.72983 10.2329 2.93844 10.6449C3.14702 11.0569 3.35488 11.4963 3.35488 11.4963C3.35488 11.4963 3.76873 12.41 3.35488 12.6511C2.94104 12.8922 2.85751 12.9109 1.99098 11.8997C1.12453 10.8884 0.31923 10.2517 0.263071 9.37149ZM1.66665 8.66548C1.22555 8.53372 1.25649 8.09015 1.30743 7.85472C1.34096 7.8898 1.37527 7.92418 1.41082 7.95757C1.54278 8.08142 1.67592 8.17308 1.80681 8.24308L1.80327 8.24352C1.7411 8.25252 1.69751 8.26665 1.68633 8.28531C1.66703 8.31739 1.66103 8.46863 1.66665 8.66548ZM1.16197 8.53481C1.23173 8.75944 1.49381 8.89758 1.68266 8.97009C1.70636 9.29183 1.75275 9.63567 1.8174 9.78348C1.94851 10.0831 1.42414 9.68985 1.19944 9.29658C0.983221 8.91821 0.923189 8.39994 0.9189 7.46091C0.918753 7.4238 0.91854 7.38736 0.91854 7.34889L0.918327 7.33454C0.958609 7.40444 1.00251 7.47242 1.04908 7.53882C1.02052 7.90317 1.05537 8.19158 1.16197 8.53481ZM1.00816 4.91436C1.34528 4.47434 1.80231 3.85633 2.67868 3.77204C3.55505 3.6878 4.01387 4.04779 4.40715 4.49049C4.80042 4.93313 5.41843 5.49494 5.44652 5.67286C5.45673 5.73773 5.47855 5.81875 5.48837 5.89465C5.48357 5.9366 5.48155 5.98287 5.48564 6.02799C5.46862 6.09483 5.41886 6.13924 5.3033 6.13166C5.01577 6.11294 4.30414 5.9725 4.18242 5.90698C4.06069 5.8414 4.00449 5.58856 4.01387 5.42003C4.02325 5.25149 3.91086 4.88037 3.5176 4.64457C3.12432 4.40876 2.81305 4.33734 2.53439 4.49049C2.49157 4.51406 1.7011 4.80203 1.52318 5.57924C1.34528 6.35639 1.3629 6.96332 2.02882 7.38638C2.69466 7.80949 3.46138 7.27398 3.46138 7.27398L3.64868 7.37699C3.64868 7.37699 4.28538 7.89204 4.26672 8.03248C4.25711 8.10439 4.26202 8.16397 4.23278 8.20882C4.16763 8.20702 4.10519 8.22808 4.0502 8.29C4.03855 8.29169 4.02687 8.29333 4.01387 8.29464C3.78469 8.31837 3.06263 8.42155 2.59786 8.38013C2.52433 8.29098 2.29672 8.24592 2.08636 8.23511C1.85135 8.13107 1.57699 7.96908 1.33812 7.7378C1.34479 7.71679 1.34926 7.70473 1.34926 7.70473C1.34926 7.70473 1.12623 7.17163 1.06453 7.41164C1.00677 7.32543 0.955243 7.23263 0.911442 7.133C0.888641 6.77776 0.810805 6.49312 0.709995 6.29812C0.666134 5.74673 0.780219 5.21194 1.00816 4.91436ZM2.5725 3.69806C2.73614 3.64781 2.81508 3.59161 2.83692 3.5754C2.91506 3.51735 2.9816 3.44353 3.03189 3.35804L3.05879 3.31237C4.02011 3.23975 4.16993 3.02129 4.16993 3.02129C4.16993 3.02129 4.28232 3.03548 4.45708 2.91954C4.63189 2.8036 4.95646 2.73272 4.95646 2.73272C4.99395 3.15415 5.29359 2.96057 5.0813 3.13238C4.86911 3.30429 4.91904 4.02089 4.91904 4.02089L5.00639 3.99595L5.01894 4.2208L5.13122 4.22985C5.13122 4.41656 4.74041 4.57309 4.65982 4.60348C4.38697 4.33139 4.10104 4.06377 3.89213 3.91248C3.34907 3.51921 2.5725 3.69806 2.5725 3.69806C2.5725 3.69806 3.71421 3.62222 2.5286 3.71082H2.52855C2.54415 3.70657 2.5589 3.70231 2.5725 3.69806ZM4.55485 2.39205C4.52779 2.75995 4.32597 2.81696 4.32597 2.81696L4.31353 2.71706C4.30098 2.61722 4.44458 2.16148 4.50078 2.04286C4.55698 1.92431 4.68803 1.9805 4.68803 1.9805C4.68803 1.9805 4.7068 2.00544 4.76916 2.19274C4.83163 2.37999 4.76916 2.67336 4.76916 2.67336C4.76916 2.67336 4.69741 2.70457 4.64433 2.56413C4.60193 2.45179 4.64433 2.26143 4.64433 2.26143C4.64433 2.26143 4.58191 2.02415 4.55485 2.39205ZM2.7342 3.1291C2.85905 2.91681 3.29602 2.04286 3.50201 1.91809L3.52074 1.84312C3.52074 1.84312 3.33971 1.88682 3.28977 1.76199C3.28977 1.76199 3.33346 1.66836 3.45831 1.6933L3.52074 1.56846C3.52074 1.56846 3.30846 1.62466 3.30224 1.43119C3.30224 1.43119 3.59561 1.41864 3.79535 1.24389C3.99516 1.06908 4.15123 1.04414 4.15123 1.04414C4.15123 1.04414 4.10125 1.16897 4.28232 1.20018C4.28232 1.20018 4.38216 1.04414 4.34468 0.781924C4.34468 0.781924 4.31975 0.6883 4.095 0.838121C3.87029 0.987944 3.6643 1.18141 3.37716 1.11283C3.37716 1.11283 3.40209 0.987945 3.62683 0.919308C3.85157 0.850616 4.14494 0.469787 4.50705 0.526038C4.52446 0.528657 4.6069 0.775705 4.6069 1.11283C4.6069 1.44985 4.88155 1.67458 5.09385 1.67458C5.30603 1.67458 5.35595 1.57468 5.35595 1.57468L5.43086 1.59967C5.43086 1.59967 5.51827 0.975451 5.36845 0.775705C5.21868 0.575961 5.09385 0.526038 5.09385 0.526038C5.09385 0.526038 5.19806 0.28832 5.51827 0.276317C5.83854 0.264313 5.98023 0.451127 5.98023 0.6883C5.98023 0.925528 6.05514 1.53726 6.24239 1.67458C6.24239 1.67458 6.52954 1.71207 6.60445 1.59967C6.67216 1.49808 6.69912 1.22817 6.62982 0.882097C6.61269 0.796384 6.63386 0.706796 6.68919 0.639141C6.76584 0.545298 6.89079 0.445235 7.04765 0.50727C7.47523 0.676352 7.87887 1.07262 7.92786 1.15026C7.81029 1.06362 7.59292 0.928965 7.29109 0.878715C7.19381 0.86251 7.10384 0.857764 7.02413 0.859292C6.94442 0.860874 6.88287 0.929784 6.88778 1.00933C6.89526 1.13122 6.90284 1.25311 6.91037 1.37494C6.91037 1.37494 6.91037 1.6933 6.78554 1.83068C6.6606 1.96795 6.47962 2.09912 6.34229 2.01166C6.20496 1.92431 6.10506 1.72451 6.03637 1.70585C5.96774 1.68708 5.89905 1.6933 5.89905 1.6933C5.89905 1.6933 5.82413 1.78698 5.98645 1.98672C6.14877 2.18647 6.24867 2.19896 6.24867 2.19896C6.24867 2.19896 6.60445 2.13654 6.77299 2.13654C6.94153 2.13654 7.01644 2.16775 7.01644 2.16775C7.01644 2.16775 7.32858 2.79198 7.20374 2.99799C7.20374 2.99799 6.92903 2.71084 6.89782 2.38621C6.89782 2.38621 6.79176 2.26765 6.76677 2.42369C6.74178 2.57974 6.76055 2.67336 6.76055 2.67336C6.76055 2.67336 6.67314 2.74205 6.62317 2.60467C6.57325 2.4674 6.56703 2.41747 6.52332 2.39243C6.47962 2.3675 6.45463 2.51246 6.45463 2.51246C6.45463 2.51246 6.34229 2.41747 6.29232 2.39871C6.24239 2.37999 6.24867 2.41747 6.24867 2.41747C6.24867 2.41747 6.3298 2.71084 6.2861 2.80447C6.24239 2.89809 6.2299 2.89187 6.08013 2.74205C5.93031 2.59223 6.00522 2.78576 6.00522 2.78576C6.00522 2.78576 6.07353 3.05419 6.14233 3.21645L6.21118 3.37877C6.21118 3.37877 6.31108 3.19146 6.31108 3.21645C6.31108 3.24144 6.36728 3.69091 6.24239 3.80325C6.11756 3.91564 5.96152 3.84695 5.96152 3.84695C5.96152 3.84695 5.86162 3.46612 5.94897 3.24144C5.94897 3.24144 5.64938 3.19146 5.40588 2.96057C5.16243 2.72956 4.91904 2.66714 4.90654 1.88682L4.84413 1.84312L4.82541 1.73078C4.82541 1.73078 4.62365 1.7807 4.50602 1.72451C4.38844 1.66836 4.32597 1.57468 4.33846 1.53098C4.35096 1.48733 4.03885 1.56846 4.03885 1.56846C4.03885 1.56846 3.96396 1.71829 4.03885 1.74955C4.11378 1.7807 4.27605 1.737 4.31353 1.81191C4.35096 1.88682 4.37049 2.66709 3.95771 2.96057C3.95771 2.96057 3.84535 2.95429 3.95771 2.76704C4.07003 2.57974 4.27605 2.16148 4.19491 1.98672C4.18373 1.96266 4.17582 1.94455 4.1702 1.93052H4.04509L3.96396 2.03043C3.96396 2.03043 3.88902 2.52354 3.67675 2.79819C3.46454 3.07285 3.3834 3.11661 3.3834 3.11661C3.3834 3.11661 3.22109 2.99799 3.3834 2.84195C3.5457 2.68591 3.87029 2.24261 3.84535 1.94924L3.82035 1.86189C3.82035 1.86189 3.70175 1.82446 3.60189 2.03043C3.50201 2.23639 2.94643 3.19779 2.87151 3.27892C2.7966 3.36006 2.7342 3.37249 2.7342 3.37249C2.7342 3.37249 2.60933 3.34129 2.7342 3.1291ZM8.20252 2.84817C8.4272 3.21645 8.43975 3.37249 8.43975 3.37249C8.43975 3.37249 8.40854 3.34129 8.02771 3.03542C7.64693 2.72956 7.68436 2.12405 7.68436 2.12405C7.85295 2.20518 7.97779 2.47984 8.20252 2.84817ZM7.42493 2.23639C7.45887 2.43619 7.52832 2.59223 7.68436 2.86067C7.8404 3.1291 7.72807 3.17275 7.72807 3.17275C7.27238 2.87932 7.21624 2.11156 7.21624 2.11156C7.21624 2.11156 7.39099 2.03664 7.42493 2.23639ZM7.07885 1.52476C7.06636 1.45722 7.04634 1.38661 7.03826 1.27198C7.03182 1.17945 7.0363 1.10257 7.04143 1.05036C7.04143 1.05036 7.29688 1.04169 7.44424 1.08124C7.56007 1.1124 7.71268 1.20111 7.85917 1.46234C7.79261 1.48111 7.72599 1.49983 7.65943 1.51854C7.65943 1.51854 7.71693 1.78698 7.7787 1.84312C7.7787 1.84312 7.69064 1.84939 7.5783 1.74955C7.4659 1.64965 7.39721 1.72451 7.39721 1.72451C7.39721 1.72451 7.48462 1.82446 7.4503 1.89304C7.4503 1.89304 7.38477 1.78698 7.28487 1.84939C7.18503 1.91181 7.07885 1.9368 7.07885 1.9368C7.10837 1.75762 7.09659 1.62008 7.07885 1.52476ZM6.67936 3.98755C6.87911 4.00327 6.97895 3.83451 6.97895 3.83451C7.21624 3.83451 7.35356 3.73205 7.35356 3.73205C7.35356 3.73205 6.56703 3.21023 6.49211 3.02129C6.4172 2.8324 6.74178 2.89651 6.74178 2.89651L6.77921 2.99658L7.00394 3.08049L7.05387 3.14662L7.42847 3.16855L7.8404 3.65915L7.84646 3.65894L7.85197 3.66859C7.62789 3.69211 7.37888 3.75813 7.1656 3.91248C6.95839 4.06252 6.67538 4.32714 6.40449 4.59693C6.40345 4.59601 6.31703 4.51957 6.26733 4.26979C6.2174 4.01843 6.29231 4.08418 6.44219 4.07681C6.59201 4.06945 6.67936 3.98755 6.67936 3.98755ZM6.78554 3.5036C6.7707 3.48347 6.90252 3.52237 6.99068 3.62222C7.07885 3.72212 7.11012 3.73456 7.11012 3.73456C7.11012 3.73456 7.01022 3.77826 6.89782 3.75955C6.78554 3.74078 6.78554 3.83446 6.78554 3.83446H6.66692C6.66692 3.83446 6.56703 3.70962 6.61695 3.59101L6.8042 3.66903C6.8042 3.66903 6.85412 3.59728 6.78554 3.5036ZM7.04661 8.47316C7.25694 8.47545 7.51779 8.48478 7.7488 8.48505C7.5915 8.69031 7.44648 8.90375 7.31286 9.1251C7.208 8.85819 7.10837 8.61911 7.04661 8.47316ZM5.88039 4.61478C5.88039 4.61478 5.94897 4.5211 5.95524 4.30886C5.96152 4.09662 6.00522 4.12783 6.00522 4.12783C6.00522 4.12783 6.11756 4.20274 6.16126 4.42125C6.19291 4.57948 6.1886 4.65188 6.19089 4.67774C6.1695 4.66655 6.11685 4.65226 6.04892 4.65226C5.94897 4.65226 5.88039 4.61478 5.88039 4.61478ZM6.16917 4.83536C5.83025 5.18422 5.55832 5.48556 5.55832 5.48556L5.52886 5.67144L5.49945 5.48556C5.49945 5.48556 5.19091 5.14363 4.82143 4.76656L4.87922 4.82576L6.16917 4.83536ZM5.19369 4.40821C5.25611 4.25779 5.34351 4.25899 5.35797 4.25899V4.45175C5.35797 4.45175 5.41843 4.52732 5.30603 4.6085C5.19369 4.68969 5.06662 4.6085 5.06662 4.6085C5.06662 4.6085 5.13122 4.55858 5.19369 4.40821ZM5.7555 4.12624C5.7555 4.12624 5.80547 4.31393 5.7555 4.40821C5.70557 4.50244 5.57447 4.48989 5.57447 4.48989L5.51827 4.49049C5.51827 4.49049 5.44963 4.24022 5.57447 4.20274C5.6993 4.16531 5.7555 4.12624 5.7555 4.12624ZM5.57447 3.81569C5.49956 3.82824 5.49334 3.95929 5.49334 3.95929C5.38094 3.87194 5.25611 3.95929 5.25611 3.95929C4.90032 3.75333 5.14999 3.29758 5.17498 3.21645C5.19991 3.13532 5.31853 3.14154 5.41221 3.25394C5.50578 3.36627 5.64938 3.34756 5.64938 3.34756C5.64938 3.34756 5.64938 3.80325 5.57447 3.81569ZM3.99516 5.99122C4.21985 6.15975 5.06258 6.25338 5.37418 6.244C5.45002 6.2417 5.49847 6.21093 5.52886 6.16603C5.55935 6.21093 5.60775 6.2417 5.68353 6.244C5.99518 6.25338 6.83786 6.15975 7.06265 5.99122C7.28738 5.82268 7.10008 5.49494 7.13756 5.3264C7.17499 5.15781 7.63379 4.59601 8.04582 4.57729C8.45781 4.55858 9.19753 4.85822 9.40355 5.54175C9.60952 6.22534 9.55332 6.92758 9.029 7.21784C8.50462 7.5081 8.0084 7.34889 7.91471 7.21784C7.82109 7.08679 7.42782 7.09612 7.278 7.29275C7.12818 7.48939 6.6038 7.83584 6.6038 8.04186C6.6038 8.05234 6.60391 8.06292 6.60402 8.07356C6.49561 8.02217 6.36488 8.00083 6.30072 8.14563C6.18025 8.41773 5.95415 9.19886 6.01444 9.46173C6.07462 9.72461 6.46058 9.64429 6.54526 9.78086C7.1117 10.6945 6.53549 11.4353 5.95131 11.6471C5.94422 11.5056 5.88737 10.358 5.89588 10.1518C5.9051 9.93057 5.95262 8.18525 5.95317 8.16762C5.95404 8.135 5.96566 8.10466 5.98672 8.08011C6.40864 7.58661 6.68493 7.26574 6.70375 7.24588C6.72421 7.23213 6.81522 7.20884 6.87545 7.19351C6.93296 7.17877 6.99243 7.16355 7.03581 7.14778C7.09593 7.12591 7.28875 6.9835 7.72686 6.65134C7.92748 6.49923 8.13487 6.34193 8.19112 6.30827C8.33603 6.22124 8.95512 5.88652 9.00897 5.866L8.98595 5.7948L8.96811 5.72202C8.90869 5.73659 8.20176 6.12718 8.11402 6.17983C8.05084 6.2177 7.85879 6.36332 7.6364 6.53196C7.39918 6.71185 7.04055 6.98367 6.98463 7.00702C6.94818 7.02028 6.89237 7.03452 6.83835 7.04827C6.71096 7.08089 6.63714 7.10103 6.60145 7.13682C6.57194 7.16628 6.18898 7.61307 5.87291 7.98266C5.82992 8.03291 5.80526 8.09702 5.80335 8.16348C5.80291 8.1811 5.75539 9.92544 5.74622 10.1455C5.73678 10.3711 5.79975 11.6164 5.80237 11.6693L5.89883 11.6644C5.77634 11.7021 5.65511 11.7166 5.54544 11.7034C5.44178 11.691 5.34051 11.6718 5.24263 11.647H5.24983C5.25153 11.1071 5.26189 9.67163 5.28923 9.51548C5.31885 9.34601 5.30112 8.5436 5.29212 8.20641C5.29054 8.14825 5.27188 8.09238 5.23799 8.04475C4.83671 7.48246 4.58327 7.18036 4.48479 7.14686C4.45227 7.13584 4.41905 7.12585 4.38424 7.11527C4.27244 7.08149 4.14586 7.04325 3.96506 6.94586C3.86848 6.89386 3.55629 6.68168 3.2258 6.45716C2.57591 6.01544 2.17406 5.74559 2.07417 5.72191L2.03933 5.86764C2.12696 5.89154 2.73756 6.30641 3.14159 6.58101C3.4899 6.8177 3.79062 7.02208 3.89416 7.07784C4.08814 7.18232 4.2282 7.22466 4.34086 7.25865C4.37404 7.26869 4.40557 7.27829 4.43536 7.28828C4.4915 7.31376 4.7284 7.58858 5.116 8.13167C5.13248 8.15486 5.14164 8.18208 5.1423 8.2104C5.15665 8.74525 5.16401 9.36211 5.14164 9.48961C5.10885 9.67665 5.10121 11.3192 5.10018 11.606C4.65486 11.459 4.31533 11.1715 4.27419 10.7347C4.22018 10.1604 4.53313 9.78195 4.67701 9.74899C4.82088 9.71598 4.95516 9.36456 4.84423 9.15723C4.73342 8.94991 4.63221 8.35427 4.45931 8.27598C4.45015 8.27178 4.44087 8.26763 4.43154 8.26359C4.45124 8.19512 4.45397 8.11726 4.45397 8.04186C4.45397 7.83584 3.92958 7.48939 3.77982 7.29275C3.62999 7.09612 3.23671 7.08679 3.14304 7.21784C3.04944 7.34889 2.55317 7.5081 2.02882 7.21784C1.50442 6.92758 1.44826 6.22534 1.65425 5.54175C1.86024 4.85822 2.6 4.55858 3.01196 4.57729C3.424 4.59601 3.8828 5.15781 3.92026 5.3264C3.95771 5.49494 3.77041 5.82268 3.99516 5.99122ZM7.40092 11.4703C7.01338 12.2135 6.32958 12.3828 5.83837 12.5136C5.34722 12.6444 4.51038 12.3589 3.97919 11.7986C3.44796 11.2384 3.40972 10.4116 3.45469 10.0052C3.47502 9.82167 3.58154 9.55776 3.70328 9.30231C3.75353 9.28556 3.78966 9.23951 3.76515 9.17584C3.8959 8.91411 4.03056 8.67765 4.0881 8.56913C4.11063 8.52657 4.13119 8.49444 4.15059 8.47027C4.2241 8.46448 4.2797 8.44615 4.32193 8.41893C4.34566 8.42673 4.37098 8.43671 4.39946 8.44517C4.52413 8.482 4.72617 9.24115 4.72617 9.24115L4.74494 9.44597C4.74494 9.44597 4.01838 9.92059 4.13279 10.6706C4.24713 11.4205 4.74166 11.7222 5.46666 11.8051C6.70124 11.9465 6.95658 10.7804 6.90088 10.3428C6.84506 9.90525 6.64532 9.71822 6.50052 9.66241C6.35571 9.60659 6.16383 9.46075 6.1528 9.32812C6.14184 9.19548 6.28113 8.51261 6.36941 8.25115C6.42059 8.09931 6.51274 8.10903 6.60822 8.16173C6.62235 8.31886 6.68286 8.45854 6.92461 8.47103C7.0644 8.74569 7.24897 9.27667 7.42275 9.66803C7.6017 10.071 7.72277 10.4905 7.5837 11.0083C7.51474 11.1648 7.45794 11.3117 7.41151 11.4484C7.4078 11.4558 7.40474 11.4629 7.40092 11.4703ZM7.24253 12.6999C6.9011 12.641 6.54329 12.601 6.17245 12.5806C6.61215 12.4705 7.03782 12.2225 7.31384 11.7768C7.19894 12.2296 7.21296 12.5639 7.24253 12.6999ZM3.30874 8.48494C3.51788 8.48473 3.75119 8.47714 3.94976 8.47398C3.87864 8.64453 3.78422 8.85541 3.70181 9.05248C3.64281 8.95995 3.56965 8.887 3.49491 8.79386C3.41712 8.69691 3.38717 8.57792 3.30874 8.48494ZM3.0985 8.59259C3.19813 8.67219 3.22541 8.79954 3.29611 8.90146C3.37869 9.02045 3.49241 9.09378 3.54808 9.23444C3.56006 9.26466 3.58073 9.28458 3.60467 9.29642C3.58474 9.34983 3.56652 9.40101 3.55294 9.44569C3.47157 9.71315 3.17068 10.2444 3.43005 11C3.68939 11.7557 4.27364 12.3542 4.97883 12.5658C4.98844 12.5687 4.99848 12.5713 5.00824 12.5741C4.57454 12.5925 4.15777 12.6372 3.76334 12.7076C3.82444 12.5756 3.86771 11.7058 3.07213 10.3358C3.07213 10.3358 2.66564 8.75409 2.62536 8.45805C2.75414 8.4653 2.86442 8.46465 2.94643 8.47256C2.98347 8.47616 3.02524 8.47862 3.06902 8.48053C3.05235 8.51653 3.05662 8.5592 3.0985 8.59259ZM7.72168 10.3434C7.66712 10.0863 7.53399 9.703 7.39563 9.33908C7.42673 9.33663 7.45706 9.32091 7.4778 9.28594C7.62167 9.0432 7.77952 8.81034 7.95165 8.58675C7.9809 8.54873 7.97855 8.51113 7.95967 8.48183C8.01478 8.47987 8.06606 8.47692 8.11135 8.47256C8.18075 8.46585 8.27034 8.46541 8.37428 8.46105C8.33145 8.76533 7.92786 10.3358 7.92786 10.3358C7.86059 10.4516 7.80008 10.5633 7.74454 10.6716C7.75054 10.5647 7.7452 10.4543 7.72168 10.3434ZM9.31735 8.97009C9.50618 8.89758 9.76823 8.75944 9.83801 8.53481C9.93715 8.21547 9.97376 7.94316 9.95548 7.61356C10.0002 7.55415 10.0416 7.4926 10.0812 7.43008C10.0811 7.44023 10.0811 7.4507 10.0811 7.46091C10.0768 8.39994 10.0168 8.91821 9.80053 9.29658C9.57585 9.68985 9.05148 10.0831 9.18258 9.78348C9.24724 9.63567 9.29361 9.29183 9.31735 8.97009ZM9.31364 8.28531C9.30507 8.27096 9.27719 8.25939 9.23676 8.25072C9.37218 8.17979 9.51022 8.08589 9.647 7.95757C9.66593 7.93978 9.68377 7.92101 9.70216 7.90273C9.74553 8.14613 9.74586 8.54229 9.33333 8.66548C9.33895 8.46863 9.33295 8.31739 9.31364 8.28531ZM10.0496 4.91436C10.2625 5.19235 10.3762 5.67717 10.3546 6.18916C10.2104 6.39758 10.0947 6.77077 10.0826 7.26362C10.0414 7.33978 9.99613 7.41218 9.94659 7.47962C9.909 7.08728 9.65071 7.70473 9.65071 7.70473C9.65071 7.70473 9.65895 7.72656 9.66964 7.76355C9.67122 7.76895 9.67292 7.77566 9.67461 7.78166C9.44845 7.98856 9.19546 8.13538 8.9764 8.23282C8.74714 8.23735 8.47456 8.28362 8.39861 8.38515C7.93392 8.41303 7.2631 8.31728 7.04394 8.29464C6.9681 8.28684 6.91703 8.27369 6.8814 8.25601L6.84435 8.23135C6.79367 8.18481 6.8024 8.11721 6.7911 8.03248C6.77234 7.89204 7.40905 7.37699 7.40905 7.37699L7.59636 7.27398C7.59636 7.27398 8.36309 7.80949 9.029 7.38638C9.6949 6.96332 9.71253 6.35639 9.53461 5.57924C9.35674 4.80203 8.56622 4.51406 8.52333 4.49049C8.24475 4.33734 7.93348 4.40876 7.54021 4.64457C7.14694 4.88037 7.03455 5.25149 7.04394 5.42003C7.05327 5.58856 6.99707 5.8414 6.87534 5.90698C6.75368 5.9725 6.04205 6.11294 5.75452 6.13166C5.6389 6.13924 5.58914 6.09483 5.57212 6.02799C5.57616 5.98287 5.57414 5.9366 5.56934 5.89465C5.57921 5.81875 5.60104 5.73773 5.6113 5.67286C5.63939 5.49494 6.2574 4.93313 6.65067 4.49049C7.04394 4.04779 7.50273 3.6878 8.37908 3.77204C9.25542 3.85633 9.71253 4.47434 10.0496 4.91436ZM10.7744 6.07508C10.6902 5.98478 10.5889 5.97987 10.4898 6.04769C10.4895 5.95063 10.4835 5.85356 10.471 5.75716C10.3888 5.1218 9.95456 4.25561 9.18024 3.88596C9.17904 3.87931 9.17636 3.87249 9.16998 3.86616C9.15798 3.85432 9.14887 3.84237 9.14052 3.82775C9.1367 3.8212 9.13173 3.81716 9.12644 3.81421L9.123 3.80647C9.11193 3.79043 9.09802 3.7782 9.08241 3.76806C9.07357 3.7584 9.0643 3.74912 9.05409 3.74078C9.08694 3.74771 9.11968 3.75453 9.15443 3.76266C8.93597 3.55969 8.69307 3.30451 8.45377 2.99047C8.26461 2.74238 8.11244 2.50319 7.99028 2.28637C8.10262 2.34878 8.43975 2.34878 8.43975 2.34878C8.24 2.19896 8.15254 1.81191 8.15254 1.81191C8.28993 1.87433 8.43975 1.8369 8.43975 1.8369C8.30237 1.68708 8.22745 1.41242 8.22745 1.41242C8.37728 1.42492 8.37728 1.35001 8.37728 1.35001C8.27743 1.28759 7.55331 0.638377 7.12883 0.426138C6.86007 0.291757 6.67391 0.471423 6.57346 0.6213C6.51596 0.707177 6.50024 0.813679 6.53232 0.911887C6.59878 1.1154 6.68771 1.49857 6.44219 1.56224C6.10506 1.64965 6.05514 1.05036 6.06758 0.725782C6.08013 0.401094 5.88039 0.18891 5.51827 0.18891C5.15621 0.18891 4.89405 0.625883 4.89405 0.625883C4.89405 0.625883 5.14377 0.663312 5.21868 0.713289C5.29359 0.763266 5.46835 1.1627 5.28104 1.41242C5.09385 1.66214 4.86911 1.42492 4.76916 1.31258C4.66931 1.20018 4.75672 0.538477 4.63189 0.401094C4.50705 0.263822 3.77041 0.588401 3.43331 0.87555C3.09626 1.1627 2.69675 1.21268 2.69675 1.21268C2.69675 1.37494 2.90896 1.3625 2.90896 1.3625C2.85905 1.53726 2.70922 1.737 2.70922 1.737L2.90896 1.79947C2.92145 2.02415 2.72169 2.19896 2.72169 2.19896H2.94643C2.90124 2.37988 2.83411 2.58737 2.73266 2.80829C2.5358 3.23708 2.28531 3.55173 2.08498 3.76266C2.13278 3.76391 2.17768 3.76276 2.22053 3.76025C1.2296 4.00654 0.680478 5.03309 0.586809 5.75716C0.572209 5.86993 0.566987 5.98342 0.568973 6.0969C0.452285 5.98112 0.326475 5.96678 0.225604 6.07508C-0.0365844 6.35639 -0.111495 9.53605 0.225604 10.0155C0.520486 10.435 1.69971 11.9814 2.19282 12.4985C2.09734 12.4768 1.99621 12.4651 1.89146 12.4651C1.30632 12.4651 0.83024 12.8283 0.83024 13.2748C0.83024 13.2948 0.832013 13.3144 0.833928 13.3341L0.833863 13.3344L0.833993 13.3346C0.844158 13.4392 0.880222 13.5383 0.937936 13.6281L0.938192 13.6288L0.938787 13.6296C0.965707 13.6712 0.99733 13.7107 1.03277 13.748L1.71477 14.6069C1.95433 14.8453 2.32992 14.8788 2.60788 14.6866C3.20176 14.279 4.07725 13.9999 5.06957 13.9459C5.35466 13.9303 5.72085 13.935 5.98454 13.9459C6.97747 13.9868 7.85235 14.279 8.44624 14.6866C8.72417 14.8788 9.09982 14.8453 9.33933 14.6069L10.0213 13.748C10.0568 13.7107 10.0884 13.6712 10.1153 13.6296L10.1159 13.6288L10.1162 13.6281C10.1739 13.5383 10.21 13.4392 10.2202 13.3346L10.2203 13.3344L10.2202 13.3341C10.2221 13.3144 10.2239 13.2948 10.2239 13.2748C10.2239 12.8283 9.74777 12.4651 9.16261 12.4651C9.03107 12.4651 8.90514 12.4835 8.78899 12.5172C9.27032 12.0206 10.4757 10.4404 10.7744 10.0155C11.1115 9.53605 11.0366 6.35639 10.7744 6.07508Z" fill="#231F20"/>
<path d="M3.12466 8.08877C4.22956 8.07 3.66776 7.85465 3.66776 7.85465C3.66776 7.85465 3.41493 7.54568 3.32126 7.5831C3.22766 7.62059 3.2932 7.76103 2.97483 7.77974C2.65649 7.79851 1.9466 8.01495 1.43922 7.20855C0.93183 6.40221 1.09278 6.29096 1.10212 6.17856C1.1115 6.06622 1.04596 5.67295 1.04596 5.67295C1.04596 5.701 0.727589 6.49692 1.14894 7.08688C1.57029 7.67673 2.01977 8.10748 3.12466 8.08877Z" fill="#231F20"/>
<path d="M7.53078 4.12636C7.04383 4.25992 6.23858 5.52315 6.08875 5.59807C5.93893 5.67298 5.8734 5.74789 5.93893 5.78532C6.00451 5.8228 6.33646 5.7385 6.50286 5.7385C6.66933 5.7385 6.78167 5.68236 6.79105 5.59807C6.80038 5.51382 6.73485 5.14854 6.94082 4.89582C7.14689 4.64299 7.47453 4.12636 8.19554 4.12636H8.56076C8.56076 4.12636 8.1394 3.95941 7.53078 4.12636Z" fill="#231F20"/>
<path d="M4.11697 4.89582C4.32298 5.14854 4.25745 5.51382 4.26684 5.59807C4.27617 5.68236 4.38856 5.7385 4.55497 5.7385C4.72143 5.7385 5.05338 5.8228 5.1189 5.78532C5.18443 5.74789 5.1189 5.67298 4.96908 5.59807C4.81926 5.52315 4.01399 4.25992 3.52711 4.12636C2.91846 3.95941 2.49707 4.12636 2.49707 4.12636H2.86226C3.58326 4.12636 3.91099 4.64299 4.11697 4.89582Z" fill="#231F20"/>
<path d="M9.61891 7.20855C9.11145 8.01495 8.40168 7.79851 8.08326 7.77974C7.76491 7.76103 7.83049 7.62059 7.73681 7.5831C7.64318 7.54568 7.39035 7.85465 7.39035 7.85465C7.39035 7.85465 6.8286 8.07 7.9335 8.08877C9.03839 8.10748 9.48781 7.67673 9.90917 7.08688C10.3305 6.49692 10.0122 5.701 10.0122 5.67295C10.0122 5.67295 9.9466 6.06622 9.95599 6.17856C9.96537 6.29096 10.1263 6.40221 9.61891 7.20855Z" fill="#231F20"/>
<path d="M4.06894 11.26C3.57559 10.5044 4.01389 9.95881 4.14464 9.68432C4.27548 9.40982 4.36965 9.52124 4.43496 9.45265C4.50021 9.38402 4.33227 9.04285 4.33227 9.04285C4.33227 9.04285 4.35459 8.46397 3.93953 9.43427C3.52441 10.4045 3.7234 10.9659 4.06617 11.5631C4.40893 12.1601 5.19198 12.1813 5.21549 12.1919C5.21549 12.1919 4.90914 11.9844 4.81147 11.9499C4.71381 11.9155 4.56224 12.0156 4.06894 11.26Z" fill="#231F20"/>
<path d="M6.59301 8.54587C6.53785 8.58963 6.48863 8.9153 6.42845 9.06255C6.36833 9.20976 6.37482 9.33055 6.44215 9.37087C6.50953 9.41119 6.83973 9.49211 6.97738 9.77047C7.11504 10.0489 7.43018 10.5353 7.16954 11.1731C7.10751 11.3249 7.03751 11.4961 7.03751 11.4961C7.03751 11.4961 7.32995 11.1868 7.40988 10.5849C7.47383 10.1035 6.70475 8.9106 6.69602 8.7496C6.68734 8.58859 6.64817 8.50211 6.59301 8.54587Z" fill="#231F20"/>
<path d="M2.48096 5.39334C2.52362 5.42913 3.53359 6.27121 4.12884 6.49049C4.63547 6.67708 5.31027 7.30807 5.44023 7.43263C5.46528 7.45669 5.49758 7.46875 5.52993 7.46875C5.56168 7.46875 5.59344 7.45713 5.61837 7.43383C6.00149 7.07608 6.2187 6.89058 6.26993 6.86057C6.38216 6.84333 6.74482 6.68876 6.8953 6.59873C7.06667 6.49643 8.57832 5.53825 8.64253 5.49749L8.56233 5.37097C8.54661 5.3809 6.9881 6.36887 6.81853 6.47014C6.65501 6.5678 6.30479 6.70627 6.25242 6.71238C6.21466 6.71238 6.17205 6.71238 5.53015 7.31134C5.32555 7.11662 4.68965 6.53735 4.18066 6.34989C3.60978 6.13956 2.58731 5.28705 2.57708 5.27849L2.48096 5.39334Z" fill="#231F20"/>
<path d="M2.42639 14.0396C2.42984 14.0579 2.43011 14.0731 2.4273 14.0846C2.42244 14.1059 2.40852 14.1227 2.38542 14.135C2.36294 14.1471 2.33996 14.1485 2.31645 14.1393C2.29301 14.1301 2.27219 14.1082 2.25424 14.0737C2.23634 14.0392 2.22946 14.0085 2.234 13.9818C2.23845 13.9551 2.25318 13.935 2.27795 13.9216C2.30234 13.9085 2.32413 13.9055 2.3432 13.9126C2.35388 13.9167 2.36511 13.925 2.37687 13.9376C2.40458 13.9232 2.4185 13.916 2.44638 13.9019C2.43597 13.8828 2.4191 13.8671 2.39552 13.8551C2.353 13.8337 2.30341 13.8377 2.24747 13.8677C2.20565 13.8901 2.17788 13.9218 2.16439 13.962C2.14883 14.0082 2.15565 14.058 2.18417 14.1116C2.21053 14.161 2.24448 14.1925 2.28536 14.2064C2.32621 14.2202 2.36912 14.2148 2.4146 14.1905C2.45132 14.1708 2.47632 14.1444 2.48968 14.1108C2.50311 14.0772 2.50482 14.0418 2.49441 14.0046C2.46713 14.0184 2.45356 14.0254 2.42639 14.0396Z" fill="#231F20"/>
<path d="M2.64254 13.9938C2.62781 13.9612 2.62049 13.9449 2.60572 13.9123C2.67025 13.8812 2.70262 13.8661 2.76775 13.8369C2.75831 13.8146 2.75362 13.8035 2.7442 13.7812C2.6786 13.8107 2.64589 13.8259 2.58082 13.8573C2.5687 13.8303 2.5626 13.8169 2.55047 13.79C2.62202 13.7555 2.65804 13.7389 2.73029 13.7065C2.72076 13.6838 2.71597 13.6724 2.70642 13.6497C2.60539 13.6949 2.55527 13.7185 2.45557 13.7678C2.51417 13.8939 2.54344 13.957 2.60205 14.083C2.70017 14.0345 2.74964 14.0113 2.8491 13.9669C2.83945 13.9439 2.83461 13.9323 2.82495 13.9092C2.75166 13.9419 2.71515 13.9588 2.64254 13.9938Z" fill="#231F20"/>
<path d="M2.98347 13.5327C3.01735 13.6238 3.03427 13.6693 3.06823 13.7603C2.98074 13.6905 2.93615 13.6563 2.8454 13.5892C2.81499 13.602 2.79983 13.6085 2.76953 13.6217C2.82224 13.7505 2.84853 13.815 2.90124 13.9438C2.92688 13.9326 2.93971 13.9272 2.96539 13.9163C2.92895 13.8244 2.91073 13.7785 2.87422 13.6867C2.96635 13.755 3.0116 13.7898 3.1003 13.8609C3.12807 13.8499 3.14197 13.8444 3.16984 13.8337C3.12246 13.7027 3.09881 13.6372 3.05145 13.5061C3.02421 13.5166 3.01062 13.5219 2.98347 13.5327Z" fill="#231F20"/>
<path d="M3.3763 13.3901C3.26147 13.4279 3.20438 13.4481 3.09082 13.491C3.09909 13.5143 3.10318 13.5259 3.11143 13.5492C3.15323 13.5334 3.17415 13.5257 3.2161 13.5106C3.2528 13.6193 3.27113 13.6736 3.30782 13.7822C3.33606 13.7721 3.35019 13.767 3.3785 13.7573C3.34288 13.6482 3.32515 13.5937 3.28956 13.4846C3.33148 13.4701 3.3525 13.463 3.39452 13.4491C3.38721 13.4255 3.38359 13.4137 3.3763 13.3901Z" fill="#231F20"/>
<path d="M3.64907 13.4613C3.6423 13.4672 3.6311 13.4725 3.61551 13.4771C3.58407 13.4865 3.5684 13.4912 3.53708 13.5009C3.52657 13.4649 3.52135 13.4469 3.51086 13.4109C3.5434 13.4008 3.55971 13.3959 3.59232 13.3862C3.60751 13.3817 3.61949 13.3804 3.62819 13.3822C3.64364 13.3852 3.65408 13.3969 3.65956 13.4173C3.66467 13.4363 3.66116 13.4509 3.64907 13.4613ZM3.77874 13.6029C3.77607 13.5977 3.77266 13.5874 3.76868 13.572C3.76627 13.5629 3.7651 13.5583 3.76277 13.5493C3.75659 13.5256 3.74864 13.509 3.73895 13.4993C3.72925 13.4896 3.71555 13.484 3.69771 13.4823C3.71529 13.4704 3.72626 13.4556 3.73057 13.4378C3.735 13.4199 3.73515 13.403 3.73096 13.387C3.72755 13.3736 3.72232 13.3624 3.71518 13.3532C3.70808 13.3441 3.69967 13.3363 3.68993 13.3298C3.6781 13.322 3.66484 13.3173 3.65024 13.3157C3.63569 13.3141 3.61608 13.3166 3.59157 13.3234C3.52331 13.3434 3.48927 13.3538 3.42139 13.3757C3.46173 13.5092 3.48185 13.5759 3.52231 13.7095C3.5499 13.7006 3.56369 13.6962 3.59142 13.6876C3.57612 13.635 3.56845 13.6088 3.55317 13.5563C3.58134 13.5476 3.59547 13.5433 3.62375 13.5348C3.64394 13.5288 3.65866 13.5284 3.66798 13.5334C3.67725 13.5384 3.68492 13.5516 3.6911 13.5731C3.69466 13.5855 3.69647 13.5917 3.70005 13.6042C3.70293 13.6141 3.70649 13.6235 3.71092 13.6324C3.71305 13.6366 3.71625 13.6421 3.72047 13.649C3.75191 13.64 3.76761 13.6355 3.79911 13.6269L3.79692 13.6185C3.78893 13.6162 3.78289 13.6109 3.77874 13.6029Z" fill="#231F20"/>
<path d="M3.92533 13.4574C3.93096 13.3994 3.93397 13.3703 3.94029 13.3123C3.97049 13.3616 3.98543 13.3862 4.01495 13.4357C3.97908 13.4441 3.96111 13.4484 3.92533 13.4574ZM3.88087 13.2447C3.86116 13.3934 3.85253 13.4677 3.83789 13.6162C3.86779 13.6081 3.88275 13.6042 3.91269 13.5966C3.91525 13.5663 3.91657 13.5512 3.91934 13.5209C3.97028 13.508 3.99588 13.5018 4.04703 13.49C4.06231 13.5159 4.06994 13.5289 4.085 13.5549C4.11616 13.5478 4.13179 13.5443 4.16301 13.5376C4.08656 13.4113 4.04718 13.3485 3.96609 13.2241C3.93199 13.2322 3.91493 13.2362 3.88087 13.2447Z" fill="#231F20"/>
<path d="M4.2674 13.4521C4.24655 13.3393 4.23619 13.283 4.21534 13.1704C4.18506 13.1763 4.1699 13.1794 4.13965 13.1856C4.16646 13.3227 4.17983 13.3913 4.20667 13.5283C4.30439 13.508 4.35344 13.4988 4.4517 13.4822C4.44777 13.4574 4.44581 13.445 4.44182 13.4201C4.37193 13.432 4.33707 13.4384 4.2674 13.4521Z" fill="#231F20"/>
<path d="M4.80955 13.3644C4.80142 13.3695 4.7898 13.373 4.77458 13.3748C4.74043 13.3787 4.72335 13.3809 4.68925 13.3853C4.68472 13.3483 4.68243 13.3299 4.6779 13.2929C4.71287 13.2883 4.73039 13.2862 4.76547 13.282C4.7808 13.2803 4.79291 13.281 4.8017 13.2838C4.81757 13.2889 4.82636 13.3005 4.82821 13.3186C4.83039 13.34 4.82417 13.3552 4.80955 13.3644ZM4.66137 13.159C4.69296 13.1549 4.70873 13.1529 4.74032 13.1491C4.75767 13.1471 4.77262 13.147 4.78375 13.1497C4.797 13.1528 4.80486 13.1633 4.8065 13.1795C4.80803 13.1941 4.80421 13.2048 4.79509 13.2117C4.78598 13.2184 4.7736 13.2228 4.75799 13.2247C4.72313 13.2288 4.70562 13.2309 4.67081 13.2355C4.66699 13.2049 4.66513 13.1896 4.66137 13.159ZM4.84065 13.2397C4.852 13.2324 4.86057 13.2249 4.86602 13.217C4.8759 13.203 4.87988 13.1854 4.87792 13.1642C4.87595 13.1436 4.86886 13.1264 4.8562 13.1127C4.83536 13.0906 4.80246 13.0815 4.75772 13.086C4.68701 13.0942 4.65166 13.0987 4.58105 13.1087C4.59955 13.2473 4.60877 13.3165 4.62721 13.4551C4.6899 13.4461 4.72127 13.4421 4.78413 13.4347C4.80186 13.4326 4.81812 13.4292 4.83296 13.4244C4.84774 13.4196 4.86029 13.4123 4.87071 13.4028C4.87988 13.3943 4.88725 13.3844 4.89292 13.3728C4.90181 13.3554 4.90536 13.3365 4.90345 13.3158C4.9016 13.2958 4.89549 13.2792 4.88496 13.2661C4.87442 13.253 4.85958 13.2443 4.84065 13.2397Z" fill="#231F20"/>
<path d="M5.06204 13.2753C5.07671 13.219 5.08424 13.191 5.09963 13.1348C5.12145 13.1885 5.1322 13.2154 5.15332 13.2692C5.11682 13.2714 5.09854 13.2727 5.06204 13.2753ZM5.05205 13.058C5.00922 13.2013 4.98904 13.2731 4.95117 13.417C4.98173 13.4142 4.997 13.4129 5.02756 13.4105C5.03492 13.381 5.03858 13.3663 5.04611 13.3369C5.0981 13.3329 5.12413 13.3312 5.17618 13.3282C5.18714 13.3564 5.19249 13.3705 5.20324 13.3987C5.23494 13.397 5.25082 13.3962 5.28252 13.3949C5.22752 13.2572 5.19877 13.1887 5.13891 13.0522C5.10416 13.0543 5.08681 13.0555 5.05205 13.058Z" fill="#231F20"/>
<path d="M5.54104 13.0399C5.54126 13.1374 5.54137 13.1862 5.54159 13.2837C5.4849 13.1863 5.4556 13.138 5.39504 13.0418C5.36279 13.0425 5.34664 13.043 5.31445 13.0441C5.31909 13.1839 5.32138 13.2538 5.32602 13.3936C5.3533 13.3926 5.36694 13.3922 5.39422 13.3916C5.39187 13.2923 5.39073 13.2427 5.38844 13.1435C5.44982 13.2413 5.4795 13.2905 5.53689 13.3895C5.56614 13.3894 5.58076 13.3894 5.61011 13.3896C5.6111 13.2498 5.61164 13.18 5.61262 13.0401C5.58398 13.0399 5.56963 13.0398 5.54104 13.0399Z" fill="#231F20"/>
<path d="M5.90382 13.0483C5.84435 13.103 5.81516 13.1307 5.75787 13.1868C5.7594 13.1291 5.76022 13.1003 5.7618 13.0427C5.73152 13.0418 5.71646 13.0414 5.68618 13.0409C5.68378 13.1807 5.68258 13.2506 5.68018 13.3904C5.70898 13.391 5.72339 13.3914 5.7522 13.3921C5.7535 13.3454 5.7541 13.322 5.75541 13.2753C5.77015 13.2615 5.77751 13.2545 5.79241 13.2408C5.83453 13.3033 5.85515 13.3347 5.89536 13.3979C5.93301 13.3998 5.95178 13.4009 5.98937 13.4033C5.93399 13.3172 5.90545 13.2745 5.84653 13.1896C5.90796 13.1346 5.93923 13.1074 6.00295 13.0539C5.96329 13.0514 5.94348 13.0503 5.90382 13.0483Z" fill="#231F20"/>
<path d="M6.39783 13.3578C6.37824 13.3768 6.35391 13.3846 6.32488 13.3812C6.29585 13.3779 6.2737 13.3647 6.25837 13.3417C6.24309 13.3187 6.23715 13.2876 6.2408 13.2484C6.24451 13.2092 6.2563 13.1799 6.27621 13.1605C6.29618 13.1412 6.32139 13.1331 6.3514 13.1366C6.38146 13.1401 6.40416 13.1536 6.41927 13.1771C6.43433 13.2006 6.43935 13.2318 6.4346 13.2707C6.4298 13.3098 6.41747 13.3388 6.39783 13.3578ZM6.35805 13.075C6.30573 13.069 6.26399 13.0802 6.23415 13.1028C6.19645 13.1315 6.17189 13.1775 6.16655 13.2413C6.16125 13.3039 6.1768 13.3533 6.20779 13.39C6.2318 13.4184 6.26841 13.4369 6.31822 13.4427C6.36798 13.4484 6.4077 13.4388 6.43727 13.4165C6.47525 13.3878 6.50095 13.343 6.50918 13.2808C6.51759 13.2174 6.50362 13.1669 6.47307 13.1304C6.44884 13.1015 6.41049 13.0811 6.35805 13.075Z" fill="#231F20"/>
<path d="M6.54199 13.4624C6.57085 13.4667 6.58526 13.469 6.61407 13.4736C6.62285 13.4158 6.62722 13.3868 6.636 13.3289C6.6988 13.339 6.73017 13.3444 6.79275 13.3561C6.79695 13.3322 6.79903 13.3202 6.80317 13.2962C6.74005 13.2846 6.70846 13.2791 6.64506 13.2689C6.64986 13.2371 6.65226 13.2212 6.65711 13.1894C6.73017 13.2012 6.76662 13.2076 6.83945 13.2213C6.84371 13.1972 6.84589 13.1851 6.85015 13.1609C6.74659 13.1413 6.69471 13.1325 6.59061 13.117C6.57118 13.2552 6.56142 13.3243 6.54199 13.4624Z" fill="#231F20"/>
<path d="M7.26038 13.2506C7.23795 13.3454 7.22677 13.3928 7.20429 13.4875C7.1715 13.3789 7.15415 13.3246 7.11732 13.2163C7.08567 13.209 7.06985 13.2055 7.03815 13.1986C7.01016 13.3355 6.9962 13.4039 6.96826 13.5407C6.99511 13.5465 7.00858 13.5495 7.03537 13.5556C7.0561 13.4587 7.06647 13.4103 7.08726 13.3134C7.12452 13.4235 7.14209 13.4787 7.17515 13.5891C7.2038 13.5962 7.21809 13.6 7.24668 13.6074C7.28013 13.472 7.29688 13.4042 7.33032 13.2687C7.30233 13.2613 7.28837 13.2577 7.26038 13.2506Z" fill="#231F20"/>
<path d="M7.39383 13.2858C7.35912 13.421 7.34183 13.4886 7.30713 13.6237C7.3355 13.6315 7.34963 13.6355 7.378 13.6436C7.41407 13.5087 7.43207 13.4414 7.46814 13.3066C7.4384 13.2981 7.42356 13.2939 7.39383 13.2858Z" fill="#231F20"/>
<path d="M7.63964 13.5883C7.6715 13.5986 7.68738 13.6039 7.71914 13.6146C7.70871 13.635 7.69371 13.6494 7.67423 13.6577C7.65486 13.666 7.63326 13.6664 7.60936 13.6586C7.58503 13.6508 7.56582 13.6354 7.55153 13.6123C7.5374 13.5893 7.53598 13.5573 7.54782 13.5161C7.55955 13.4752 7.57744 13.4473 7.60156 13.4327C7.62573 13.4181 7.65208 13.4153 7.68051 13.4244C7.69524 13.4292 7.70801 13.436 7.71854 13.445C7.73736 13.4611 7.74598 13.4815 7.74434 13.5061C7.77299 13.5157 7.78728 13.5206 7.81587 13.5305C7.82236 13.4972 7.8156 13.4652 7.79525 13.4346C7.77495 13.4039 7.74205 13.3811 7.69693 13.3665C7.64482 13.3498 7.59796 13.3532 7.55715 13.3765C7.51623 13.3998 7.48862 13.4389 7.47367 13.4933C7.45883 13.547 7.46303 13.5941 7.48382 13.6339C7.50411 13.6729 7.53625 13.7 7.58099 13.7143C7.60816 13.723 7.63277 13.7249 7.65486 13.7199C7.66774 13.7169 7.68345 13.71 7.70211 13.6989C7.69966 13.7165 7.69846 13.7253 7.696 13.7428C7.71466 13.7491 7.72399 13.7524 7.74254 13.7588C7.76578 13.6877 7.77741 13.6522 7.80065 13.5811C7.74314 13.5611 7.71433 13.5514 7.6565 13.5327C7.64974 13.555 7.64641 13.5661 7.63964 13.5883Z" fill="#231F20"/>
<path d="M7.97455 13.538C8.04821 13.5655 8.08487 13.5797 8.15798 13.6093C8.16671 13.5862 8.17107 13.5747 8.17986 13.5516C8.07778 13.5102 8.02644 13.4907 7.92321 13.4534C7.87852 13.5855 7.85615 13.6515 7.81152 13.7835C7.91311 13.8201 7.96369 13.8395 8.06419 13.8804C8.07314 13.857 8.07756 13.8452 8.08651 13.8218C8.01247 13.7918 7.97526 13.7773 7.90057 13.7494C7.91241 13.7156 7.9183 13.6987 7.93014 13.6649C7.99654 13.6896 8.0296 13.7025 8.09545 13.7289C8.10402 13.7063 8.10828 13.695 8.1169 13.6724C8.05039 13.6457 8.01705 13.6327 7.95011 13.6078C7.95993 13.5799 7.96478 13.5659 7.97455 13.538Z" fill="#231F20"/>
<path d="M8.37284 13.7947C8.36383 13.7948 8.35183 13.7915 8.33672 13.7848C8.30638 13.7712 8.29116 13.7647 8.26072 13.7516C8.27474 13.7169 8.28172 13.6995 8.29569 13.6648C8.32739 13.6785 8.34316 13.6853 8.37469 13.6993C8.38931 13.7058 8.39957 13.7127 8.40525 13.7198C8.4155 13.7324 8.41638 13.7483 8.40814 13.7677C8.40044 13.7857 8.38871 13.7947 8.37284 13.7947ZM8.45129 13.8302C8.46575 13.8194 8.47634 13.8065 8.48299 13.7913C8.4885 13.7788 8.49129 13.7667 8.4914 13.7549C8.49151 13.7432 8.4897 13.7316 8.48605 13.7201C8.48158 13.7063 8.47405 13.6939 8.46363 13.683C8.45315 13.6722 8.43629 13.6613 8.41294 13.6503C8.34709 13.6208 8.31397 13.6065 8.24762 13.5788C8.19683 13.7085 8.1714 13.7733 8.12061 13.903C8.14767 13.9143 8.16114 13.9199 8.18804 13.9315C8.2085 13.8809 8.21871 13.8556 8.23911 13.805C8.26655 13.8167 8.28025 13.8227 8.30758 13.8348C8.32712 13.8434 8.33885 13.8528 8.3431 13.8628C8.34725 13.8728 8.34512 13.8881 8.33677 13.9086C8.33192 13.9207 8.32946 13.9266 8.32461 13.9386C8.32068 13.9481 8.31773 13.9577 8.31571 13.9675C8.31473 13.9722 8.31386 13.9786 8.31288 13.9867C8.3431 14.0004 8.35816 14.0074 8.38828 14.0215L8.39177 14.0135C8.38686 14.0065 8.38544 13.9984 8.38713 13.9894C8.38822 13.9837 8.39193 13.9735 8.39826 13.959C8.40203 13.9504 8.40394 13.9462 8.40765 13.9376C8.41741 13.9152 8.42145 13.8971 8.41981 13.8833C8.41823 13.8695 8.41098 13.856 8.39799 13.8429C8.41916 13.8454 8.43689 13.8412 8.45129 13.8302Z" fill="#231F20"/>
<path d="M8.58479 13.7302C8.52761 13.857 8.49907 13.9204 8.44189 14.0472C8.4689 14.0601 8.48238 14.0667 8.50933 14.0801C8.56776 13.9539 8.59706 13.8908 8.65555 13.7646C8.62729 13.7507 8.61316 13.7438 8.58479 13.7302Z" fill="#231F20"/>
<path d="M8.80242 14.0839C8.76903 14.0659 8.75238 14.0569 8.71883 14.0393C8.76002 13.9992 8.78076 13.9792 8.82255 13.9395C8.8148 13.9974 8.81076 14.0262 8.80242 14.0839ZM8.55029 14.1003C8.5785 14.1145 8.59263 14.1216 8.62078 14.1362C8.6419 14.115 8.65259 14.1044 8.67393 14.0833C8.72172 14.1082 8.74556 14.121 8.79298 14.1469C8.78845 14.177 8.78616 14.1919 8.78146 14.2219C8.81027 14.2379 8.82468 14.2459 8.85337 14.2622C8.87383 14.1142 8.88289 14.0398 8.89855 13.8903C8.86685 13.8731 8.85097 13.8646 8.81911 13.8479C8.70944 13.9472 8.6557 13.9977 8.55029 14.1003Z" fill="#231F20"/>
<path d="M3.12435 8.08846C2.01946 8.10718 1.56998 7.67643 1.14863 7.08658C0.727281 6.49662 1.04565 5.70069 1.04565 5.67265C1.04565 5.67265 1.11119 6.06592 1.10181 6.17826C1.09247 6.29065 0.931521 6.4019 1.43891 7.20824C1.9463 8.01464 2.65618 7.7982 2.97452 7.77943C3.29289 7.76072 3.22735 7.62028 3.32096 7.5828C3.41462 7.54537 3.66746 7.85435 3.66746 7.85435C3.66746 7.85435 4.22926 8.06969 3.12435 8.08846ZM3.52701 4.12603C4.01389 4.2596 4.81916 5.52283 4.96898 5.59774C5.11881 5.67265 5.18433 5.74756 5.1188 5.78499C5.05328 5.82247 4.72133 5.73818 4.55487 5.73818C4.38846 5.73818 4.27607 5.68203 4.26674 5.59774C4.25736 5.5135 4.32288 5.14822 4.11687 4.8955C3.91089 4.64266 3.58317 4.12603 2.86216 4.12603H2.49697C2.49697 4.12603 2.91836 3.95908 3.52701 4.12603ZM4.26674 8.03227C4.2854 7.89183 3.6487 7.37678 3.6487 7.37678L3.4614 7.27377C3.4614 7.27377 2.69469 7.80928 2.02884 7.38617C1.36293 6.96311 1.34531 6.35618 1.5232 5.57902C1.70112 4.80181 2.4916 4.51385 2.53442 4.49028C2.81308 4.33713 3.12435 4.40855 3.51763 4.64435C3.91089 4.88016 4.02327 5.25128 4.01389 5.41982C4.00451 5.58835 4.06071 5.84119 4.18244 5.90677C4.30417 5.97229 5.0158 6.11273 5.30333 6.13145C5.5908 6.15021 5.47459 5.85052 5.44655 5.67265C5.41845 5.49473 4.80045 4.93292 4.40718 4.49028C4.01389 4.04757 3.55507 3.68759 2.6787 3.77183C1.80233 3.85612 1.34531 4.47413 1.00818 4.91415C0.671084 5.35429 0.58172 6.31291 0.886422 7.07719C1.19122 7.84142 1.96326 8.21952 2.37033 8.34124C2.77734 8.46296 3.74237 8.32253 4.01389 8.29443C4.2854 8.26638 4.24797 8.1727 4.26674 8.03227Z" fill="#D8AF7F"/>
<path d="M9.90929 7.08658C9.48793 7.67643 9.03851 8.10718 7.93362 8.08846C6.82872 8.06969 7.39047 7.85435 7.39047 7.85435C7.39047 7.85435 7.6433 7.54537 7.73693 7.5828C7.83061 7.62028 7.76503 7.76072 8.08338 7.77943C8.4018 7.7982 9.11157 8.01464 9.61903 7.20824C10.1264 6.4019 9.96549 6.29065 9.95611 6.17826C9.94672 6.06592 10.0123 5.67265 10.0123 5.67265C10.0123 5.70069 10.3307 6.49662 9.90929 7.08658ZM8.19572 4.12603C7.47471 4.12603 7.14708 4.64266 6.941 4.8955C6.73504 5.14822 6.80057 5.5135 6.79124 5.59774C6.78185 5.68203 6.66951 5.73818 6.50305 5.73818C6.33664 5.73818 6.0047 5.82247 5.93912 5.78499C5.87359 5.74756 5.93912 5.67265 6.08894 5.59774C6.23876 5.52283 7.04401 4.2596 7.53096 4.12603C8.13958 3.95908 8.56095 4.12603 8.56095 4.12603H8.19572ZM10.0497 4.91415C9.71266 4.47413 9.25555 3.85612 8.37921 3.77183C7.50286 3.68759 7.04407 4.04757 6.6508 4.49028C6.25753 4.93292 5.63953 5.49473 5.61143 5.67265C5.58327 5.85052 5.46717 6.15021 5.75465 6.13145C6.04218 6.11273 6.75381 5.97229 6.87548 5.90677C6.9972 5.84119 7.0534 5.58835 7.04407 5.41982C7.03468 5.25128 7.14708 4.88016 7.54035 4.64435C7.93362 4.40855 8.24488 4.33713 8.52347 4.49028C8.56635 4.51385 9.35687 4.80181 9.53474 5.57902C9.71266 6.35618 9.69504 6.96311 9.02913 7.38617C8.36322 7.80928 7.59649 7.27377 7.59649 7.27377L7.40918 7.37678C7.40918 7.37678 6.77247 7.89183 6.79124 8.03227C6.80995 8.1727 6.77247 8.26638 7.04407 8.29443C7.31556 8.32253 8.28056 8.46296 8.68764 8.34124C9.09466 8.21952 9.86674 7.84142 10.1715 7.07719C10.4762 6.31291 10.3868 5.35429 10.0497 4.91415Z" fill="#D8AF7F"/>
<path d="M7.41084 10.5851C7.33091 11.187 7.03847 11.4963 7.03847 11.4963C7.03847 11.4963 7.10847 11.3251 7.1705 11.1732C7.43114 10.5355 7.116 10.0491 6.97834 9.77064C6.84069 9.49227 6.51049 9.41136 6.44311 9.37104C6.37578 9.33072 6.36929 9.20992 6.42941 9.06272C6.48959 8.91546 6.53881 8.58979 6.59397 8.54604C6.64913 8.50228 6.6883 8.58876 6.69698 8.74976C6.70571 8.91077 7.47479 10.1036 7.41084 10.5851ZM4.06662 11.5631C3.72385 10.9659 3.52486 10.4045 3.93998 9.43428C4.35504 8.46398 4.33272 9.04286 4.33272 9.04286C4.33272 9.04286 4.50066 9.38403 4.4354 9.45266C4.3701 9.52124 4.27593 9.40983 4.14509 9.68432C4.01434 9.95882 3.57604 10.5044 4.06939 11.26C4.56269 12.0156 4.71426 11.9155 4.81192 11.9499C4.90959 11.9844 5.21594 12.1919 5.21594 12.1919C5.19243 12.1813 4.40938 12.1601 4.06662 11.5631ZM6.8067 8.29888C6.66757 8.20634 6.45811 7.98963 6.36994 8.25108C6.28166 8.51254 6.14237 9.19541 6.15334 9.32805C6.16436 9.46068 6.35625 9.60652 6.50105 9.66234C6.64585 9.71815 7.3385 10.4388 6.54061 11.4569C6.51251 11.4929 6.18368 11.9433 5.46719 11.8051C4.75065 11.6669 4.24766 11.4204 4.13333 10.6705C4.01892 9.92052 4.74547 9.4459 4.74547 9.4459L4.7267 9.24108C4.7267 9.24108 4.52466 8.48193 4.4 8.4451C4.27538 8.40822 4.21034 8.33953 4.08864 8.56906C3.96687 8.7986 3.50017 9.59877 3.45523 10.0051C3.41026 10.4115 3.44849 11.2384 3.97973 11.7985C4.51092 12.3588 5.34776 12.6443 5.83891 12.5135C6.33011 12.3827 7.01392 12.2134 7.40146 11.4702C7.78894 10.727 7.65265 10.1842 7.42328 9.66796C7.19397 9.15171 6.94588 8.39136 6.8067 8.29888Z" fill="#D8AF7F"/>
</svg>
