<svg width="120" height="52" viewBox="0 0 120 52" fill="none" xmlns="http://www.w3.org/2000/svg">
<path d="M115.692 1.30884H4.30917C2.32293 1.30884 0.712769 2.919 0.712769 4.90524V47.0948C0.712769 49.0811 2.32293 50.6912 4.30917 50.6912H115.692C117.678 50.6912 119.288 49.0811 119.288 47.0948V4.90524C119.288 2.919 117.678 1.30884 115.692 1.30884Z" fill="#133F77"/>
<path d="M15.1548 18.0224H24.2328C24.2429 18.0223 24.2528 18.0247 24.2618 18.0291C24.2708 18.0336 24.2787 18.0401 24.2847 18.0482C24.2908 18.0562 24.2949 18.0655 24.2967 18.0754C24.2985 18.0853 24.298 18.0955 24.2952 18.1052L22.1892 25.3232C22.1853 25.3367 22.1771 25.3486 22.1658 25.357C22.1546 25.3654 22.1409 25.37 22.1268 25.37H12.0948C12.0805 25.3702 12.0664 25.3668 12.0539 25.3601C12.0413 25.3533 12.0307 25.3434 12.0231 25.3313C12.0155 25.3192 12.0112 25.3054 12.0105 25.2912C12.0098 25.2769 12.0128 25.2627 12.0192 25.25L15.0948 18.0572C15.1006 18.0464 15.1093 18.0374 15.1199 18.0312C15.1305 18.0251 15.1426 18.022 15.1548 18.0224Z" fill="#78C2ED" stroke="white" stroke-width="1.18823" stroke-miterlimit="10"/>
<path d="M22.2336 25.4648L24.3384 18.218C24.3401 18.2126 24.3434 18.2079 24.3479 18.2046C24.3525 18.2013 24.358 18.1995 24.3636 18.1995C24.3692 18.1995 24.3747 18.2013 24.3792 18.2046C24.3838 18.2079 24.3871 18.2126 24.3888 18.218L26.5488 25.9304C26.5499 25.9326 26.5505 25.9351 26.5505 25.9376C26.5505 25.9401 26.5499 25.9426 26.5488 25.9448L24.4488 33.1904C24.4475 33.1963 24.4442 33.2016 24.4396 33.2054C24.4349 33.2092 24.429 33.2112 24.423 33.2112C24.417 33.2112 24.4111 33.2092 24.4064 33.2054C24.4017 33.2016 24.3985 33.1963 24.3972 33.1904L22.23 25.4792C22.2299 25.4742 22.2311 25.4692 22.2336 25.4648Z" fill="#123F76" stroke="white" stroke-width="1.19456" stroke-miterlimit="10"/>
<path d="M22.1159 25.4421L12.0359 25.3989C12.029 25.3989 12.0222 25.4006 12.0161 25.4037C12.0099 25.4069 12.0046 25.4115 12.0006 25.4172C11.9966 25.4228 11.994 25.4293 11.9931 25.4362C11.9921 25.443 11.9928 25.45 11.9951 25.4565L14.8799 33.4257C14.8831 33.4343 14.8889 33.4416 14.8964 33.4468C14.9039 33.4519 14.9128 33.4546 14.9219 33.4545L24.2891 33.2709C24.2958 33.2708 24.3023 33.2691 24.3083 33.2661C24.3142 33.2631 24.3194 33.2587 24.3234 33.2534C24.3274 33.2481 24.3302 33.242 24.3316 33.2355C24.3329 33.2289 24.3328 33.2222 24.3311 33.2157L22.1543 25.4733C22.1521 25.4647 22.1471 25.4571 22.1402 25.4515C22.1333 25.4459 22.1248 25.4426 22.1159 25.4421Z" fill="#0F9CDA" stroke="white" stroke-width="1.18823" stroke-miterlimit="10"/>
<path d="M25.734 25.4851H34.8132C34.8233 25.4853 34.8332 25.4878 34.8422 25.4924C34.8512 25.497 34.859 25.5036 34.8651 25.5117C34.8711 25.5199 34.8752 25.5293 34.877 25.5392C34.8788 25.5491 34.8784 25.5594 34.8756 25.5691L32.7696 32.7871C32.7655 32.8005 32.7573 32.8123 32.746 32.8207C32.7348 32.8291 32.7212 32.8338 32.7072 32.8339H22.68C22.6658 32.8341 22.6517 32.8306 22.6392 32.8238C22.6266 32.8171 22.616 32.8072 22.6083 32.7952C22.6007 32.7832 22.5962 32.7694 22.5953 32.7552C22.5944 32.741 22.5971 32.7268 22.6032 32.7139L25.68 25.5199C25.6854 25.5101 25.6931 25.5017 25.7026 25.4956C25.712 25.4896 25.7228 25.4859 25.734 25.4851Z" fill="#78C2ED" stroke="white" stroke-width="1.18823" stroke-miterlimit="10"/>
<path d="M32.8139 32.9276L34.9199 25.6808C34.9212 25.6749 34.9244 25.6697 34.9291 25.6659C34.9338 25.6621 34.9397 25.66 34.9457 25.66C34.9517 25.66 34.9576 25.6621 34.9623 25.6659C34.967 25.6697 34.9702 25.6749 34.9715 25.6808L37.1315 33.3932C37.1327 33.398 37.1327 33.4029 37.1315 33.4076L35.0303 40.6544C35.0286 40.6598 35.0253 40.6645 35.0207 40.6678C35.0162 40.6712 35.0107 40.673 35.0051 40.673C34.9995 40.673 34.994 40.6712 34.9894 40.6678C34.9849 40.6645 34.9816 40.6598 34.9799 40.6544L32.8115 32.9444C32.8102 32.9387 32.8111 32.9328 32.8139 32.9276Z" fill="#123F76" stroke="white" stroke-width="1.19456" stroke-miterlimit="10"/>
<path d="M32.6965 32.9049L22.6165 32.8617C22.6094 32.8616 22.6024 32.8633 22.5962 32.8665C22.5899 32.8697 22.5845 32.8745 22.5805 32.8803C22.5764 32.8861 22.5739 32.8928 22.5731 32.8998C22.5722 32.9068 22.5731 32.9139 22.5757 32.9205L25.4629 40.8885C25.4662 40.8969 25.472 40.9042 25.4795 40.9093C25.487 40.9144 25.4958 40.9172 25.5049 40.9173L34.8733 40.7337C34.8799 40.7336 34.8864 40.7319 34.8923 40.7289C34.8982 40.7259 34.9034 40.7215 34.9073 40.7162C34.9113 40.7108 34.9139 40.7047 34.9151 40.6981C34.9163 40.6916 34.9159 40.6849 34.9141 40.6785L32.7373 32.9361C32.7349 32.9271 32.7296 32.9192 32.7222 32.9135C32.7148 32.9079 32.7058 32.9048 32.6965 32.9049Z" fill="#0F9CDA" stroke="white" stroke-width="1.18823" stroke-miterlimit="10"/>
<path d="M25.8058 10.4828H34.8838C34.8939 10.4828 34.9038 10.4851 34.9128 10.4896C34.9218 10.4941 34.9297 10.5006 34.9357 10.5086C34.9418 10.5166 34.9459 10.526 34.9477 10.5359C34.9495 10.5458 34.949 10.5559 34.9462 10.5656L32.8402 17.7836C32.8361 17.797 32.8279 17.8088 32.8167 17.8172C32.8055 17.8256 32.7918 17.8303 32.7778 17.8304H22.7458C22.7315 17.8307 22.7174 17.8273 22.7049 17.8205C22.6923 17.8137 22.6817 17.8038 22.6741 17.7918C22.6665 17.7797 22.6622 17.7659 22.6615 17.7516C22.6608 17.7373 22.6638 17.7232 22.6702 17.7104L25.7458 10.52C25.7511 10.5087 25.7597 10.4991 25.7703 10.4925C25.781 10.4859 25.7933 10.4825 25.8058 10.4828Z" fill="#78C2ED" stroke="white" stroke-width="1.18823" stroke-miterlimit="10"/>
<path d="M32.8799 17.9252L34.9835 10.6772C34.9848 10.6713 34.9881 10.666 34.9928 10.6622C34.9975 10.6584 35.0033 10.6564 35.0093 10.6564C35.0154 10.6564 35.0212 10.6584 35.0259 10.6622C35.0306 10.666 35.0339 10.6713 35.0351 10.6772L37.1951 18.3884C37.1963 18.3935 37.1963 18.3988 37.1951 18.404L35.0951 25.6496C35.0939 25.6555 35.0906 25.6607 35.0859 25.6645C35.0812 25.6683 35.0754 25.6704 35.0693 25.6704C35.0633 25.6704 35.0575 25.6683 35.0528 25.6645C35.0481 25.6607 35.0448 25.6555 35.0435 25.6496L32.8799 17.9396C32.8787 17.9349 32.8787 17.9299 32.8799 17.9252Z" fill="#123F76" stroke="white" stroke-width="1.19456" stroke-miterlimit="10"/>
<path d="M32.7671 17.9014L22.6871 17.8582C22.6801 17.8581 22.6731 17.8597 22.6668 17.863C22.6606 17.8662 22.6552 17.8709 22.6511 17.8767C22.6471 17.8825 22.6446 17.8892 22.6437 17.8962C22.6429 17.9033 22.6438 17.9104 22.6463 17.917L25.5347 25.8862C25.5378 25.8947 25.5436 25.902 25.5512 25.9069C25.5587 25.9119 25.5677 25.9143 25.5767 25.9138L34.9439 25.7302C34.9507 25.7303 34.9573 25.7288 34.9634 25.7259C34.9694 25.7229 34.9747 25.7185 34.9787 25.7131C34.9827 25.7077 34.9853 25.7014 34.9864 25.6948C34.9874 25.6881 34.9869 25.6813 34.9847 25.675L32.8091 17.9338C32.8067 17.9245 32.8013 17.9162 32.7937 17.9104C32.7861 17.9045 32.7768 17.9013 32.7671 17.9014Z" fill="#0F9CDA" stroke="white" stroke-width="1.18823" stroke-miterlimit="10"/>
<path d="M48.0564 26.8712C48.3732 26.6252 48.582 26.4032 48.6804 26.204C48.7828 25.9912 48.8338 25.7573 48.8292 25.5212V17.2136C48.8393 16.9794 48.8055 16.7454 48.7296 16.5236C48.6031 16.2677 48.4415 16.0306 48.2496 15.8192H51.4896C51.2721 16.0263 51.0854 16.2635 50.9352 16.5236C50.8309 16.7387 50.7764 16.9746 50.7756 17.2136V25.52C50.7745 25.6334 50.7866 25.7466 50.8116 25.8572C50.8399 25.9738 50.8802 26.0872 50.9316 26.1956C50.9897 26.3168 51.0636 26.4297 51.1512 26.5316C51.2604 26.6554 51.3809 26.7687 51.5112 26.87L48.0564 26.8712ZM50.88 21.0608L53.7396 17.2136C53.9079 17.0041 54.005 16.7464 54.0168 16.478C54.0168 16.2836 53.904 16.064 53.6808 15.8192H56.9328L52.908 20.8004C53.5984 21.8404 54.1868 22.6784 54.6732 23.3144C55.1596 23.9504 55.6696 24.5532 56.2032 25.1228C56.5133 25.451 56.8397 25.7634 57.1812 26.0588C57.3628 26.222 57.5552 26.3728 57.7572 26.51C57.9505 26.6408 58.1508 26.761 58.3572 26.87H55.92C55.7092 26.8635 55.5032 26.8054 55.32 26.7008C54.8336 26.5064 54.1136 25.7296 53.16 24.3704L51.4248 21.8876L50.88 21.0608Z" fill="white"/>
<path d="M64.6223 23.0696H59.0399C59.0562 23.3434 59.0963 23.6152 59.1599 23.882C59.2257 24.0953 59.3142 24.3008 59.424 24.4952C59.9496 25.3944 60.7896 25.844 61.9439 25.844C62.4239 25.8432 62.8996 25.7549 63.348 25.5836C63.5426 25.5151 63.733 25.435 63.918 25.3436C64.0948 25.2556 64.3383 25.12 64.6487 24.9368L63.5124 26.8688C63.2333 26.9719 62.9453 27.0486 62.6519 27.098C62.3523 27.1414 62.0499 27.1618 61.7471 27.1592C60.3471 27.1592 59.2243 26.776 58.3787 26.0096C57.5331 25.2432 57.1104 24.2264 57.1104 22.9592C57.1104 21.784 57.4895 20.8084 58.2479 20.0324C59.0063 19.2564 59.9587 18.868 61.1051 18.8672C62.2427 18.8672 63.1156 19.2248 63.7236 19.94C64.3316 20.6552 64.6311 21.6984 64.6223 23.0696ZM61.014 20.0348C60.5659 20.016 60.1288 20.1757 59.7983 20.4788C59.4864 20.7748 59.2816 21.204 59.184 21.7664H62.6831C62.6937 21.5361 62.6576 21.3061 62.577 21.0902C62.4963 20.8743 62.3728 20.6769 62.2139 20.51C62.0574 20.3524 61.87 20.2289 61.6636 20.1471C61.4571 20.0653 61.2359 20.0271 61.014 20.0348Z" fill="white"/>
<path d="M63.6455 30.6873L65.0159 29.1081C65.2477 29.3351 65.5557 29.4677 65.8799 29.4801C66.0197 29.4876 66.1595 29.4655 66.2902 29.4153C66.4209 29.365 66.5395 29.2878 66.6383 29.1885C66.7619 29.0401 66.8697 28.8793 66.9599 28.7085C67.0805 28.5021 67.1782 28.2832 67.2515 28.0557L67.6451 26.9505L65.2055 21.0801C64.9143 20.3737 64.7055 19.9285 64.5791 19.7445C64.4519 19.5597 64.1999 19.3401 63.8207 19.0845L64.5935 19.1457C64.7138 19.1443 64.834 19.1367 64.9535 19.1229C65.0903 19.1073 65.2235 19.0893 65.3555 19.0689C65.4821 19.0495 65.6066 19.0186 65.7275 18.9765C65.9315 18.8965 66.1067 18.8249 66.2531 18.7617L68.5871 24.5949L70.1339 20.5569C70.2466 20.2933 70.319 20.0141 70.3487 19.7289C70.349 19.6163 70.3214 19.5054 70.2683 19.4061C70.1859 19.2683 70.0817 19.1447 69.9599 19.0401H72.5999L68.6039 28.4961C68.4629 28.8415 68.2973 29.1764 68.1083 29.4981C67.5139 30.4581 66.5171 30.9381 65.1179 30.9381C64.6179 30.923 64.1223 30.8386 63.6455 30.6873Z" fill="white"/>
<path d="M72.0299 24.9094L72.4235 25.1494C72.5891 25.2518 72.7547 25.3438 72.9203 25.4254C73.2854 25.5841 73.6631 25.7122 74.0495 25.8082C74.4138 25.9051 74.7886 25.9567 75.1655 25.9618C75.6455 25.9618 76.0199 25.8698 76.2887 25.6858C76.4163 25.607 76.521 25.4962 76.5926 25.3644C76.6642 25.2327 76.7001 25.0845 76.6967 24.9346C76.7021 24.7786 76.6657 24.624 76.5915 24.4867C76.5173 24.3494 76.4078 24.2343 76.2743 24.1534C76.144 24.0752 76.0071 24.0085 75.8651 23.9542C75.7103 23.8918 75.4379 23.8006 75.0491 23.6782C74.3691 23.463 73.9363 23.3146 73.7507 23.233C73.5089 23.1145 73.2835 22.9652 73.0799 22.789C72.8605 22.6084 72.684 22.3813 72.563 22.1242C72.442 21.8671 72.3796 21.5863 72.3803 21.3022C72.3803 20.5462 72.6647 19.9558 73.2335 19.531C73.8023 19.1062 74.6023 18.8942 75.6335 18.895C75.9354 18.8907 76.2373 18.9063 76.5371 18.9418L77.3255 19.0942V20.6482C77.2055 20.5858 77.0459 20.5042 76.8371 20.4082C76.6161 20.3021 76.3865 20.215 76.1507 20.1478C75.9117 20.078 75.6641 20.0421 75.4151 20.041C75.0055 20.041 74.6855 20.1122 74.4551 20.2546C74.3478 20.3162 74.2592 20.4058 74.1987 20.5138C74.1383 20.6217 74.1083 20.7441 74.1119 20.8678C74.1111 20.999 74.1437 21.1283 74.2067 21.2434C74.2733 21.3642 74.3654 21.4691 74.4767 21.5506C74.5977 21.6395 74.7301 21.7117 74.8703 21.7654C75.0167 21.8206 75.2591 21.895 75.5999 21.9874C76.1249 22.1237 76.6382 22.3019 77.1347 22.5202C77.4373 22.6801 77.7049 22.8988 77.9219 23.1634C78.2035 23.4914 78.3443 23.9314 78.3443 24.4834C78.3556 24.8453 78.2876 25.2053 78.1452 25.5382C78.0028 25.8711 77.7894 26.1688 77.5199 26.4106C76.9655 26.9106 76.2455 27.161 75.3599 27.1618C74.8813 27.1683 74.403 27.1326 73.9307 27.055L73.1147 26.8858L72.7547 26.8402L72.0299 24.9094Z" fill="white"/>
<path d="M78.2866 20.1572V19.4828C78.9474 19.4028 79.4238 19.1472 79.7158 18.716C80.0078 18.2848 80.1534 17.6156 80.1526 16.7084V16.52H81.013V19.04H83.011V20.696L82.8778 20.576C82.7927 20.4944 82.7012 20.4198 82.6042 20.3528C82.5102 20.2925 82.4079 20.246 82.3006 20.2148C82.1558 20.1765 82.0064 20.1588 81.8566 20.162H81.0166V24.3764C81.0127 24.5366 81.0179 24.6969 81.0322 24.8564C81.0536 24.9554 81.0944 25.0492 81.1522 25.1324C81.2877 25.3275 81.4788 25.4772 81.7006 25.562C81.9625 25.6759 82.2454 25.7336 82.531 25.7312L82.8418 25.7156L81.8002 27.08C81.3575 27.0461 80.9212 26.9533 80.503 26.804C80.188 26.6712 79.9118 26.4606 79.7002 26.192C79.5359 25.9993 79.4133 25.7746 79.3402 25.532C79.2661 25.2055 79.2342 24.8707 79.2454 24.536V20.1572H78.2866Z" fill="white"/>
<path d="M82.8792 22.9005C82.8792 21.6853 83.2972 20.6789 84.1332 19.8813C84.9692 19.0837 86.0192 18.6837 87.2832 18.6813C88.5272 18.6813 89.5336 19.0693 90.3024 19.8453C91.0712 20.6213 91.4552 21.6485 91.4544 22.9269C91.4544 24.1533 91.0412 25.1649 90.2148 25.9617C89.3884 26.7585 88.3384 27.1585 87.0648 27.1617C85.8016 27.1617 84.788 26.7709 84.024 25.9893C83.26 25.2077 82.8784 24.1781 82.8792 22.9005ZM84.732 22.7937V22.9317C84.732 23.7797 84.9824 24.4873 85.4832 25.0545C85.708 25.3245 85.9903 25.5409 86.3093 25.6881C86.6284 25.8353 86.9762 25.9095 87.3276 25.9053C87.6469 25.9109 87.9629 25.8392 88.2485 25.6963C88.5342 25.5534 88.781 25.3435 88.968 25.0845C89.3904 24.5381 89.602 23.8357 89.6028 22.9773C89.6028 22.0877 89.3692 21.3621 88.902 20.8005C88.6857 20.5305 88.41 20.3142 88.0962 20.1685C87.7825 20.0227 87.4394 19.9516 87.0936 19.9605C86.7685 19.9512 86.4456 20.0168 86.1499 20.1523C85.8542 20.2877 85.5936 20.4894 85.3884 20.7417C84.95 21.2609 84.7312 21.9449 84.732 22.7937Z" fill="white"/>
<path d="M91.9202 19.1145L92.489 19.1301L93.1886 19.0857C93.3581 19.0622 93.5261 19.0281 93.6914 18.9837C93.833 18.9437 94.0398 18.8801 94.3118 18.7929V19.8657C94.5926 19.5203 94.9489 19.2439 95.3534 19.0579C95.7578 18.8719 96.1996 18.7813 96.6446 18.7929C98.5406 18.7929 99.4886 19.7349 99.4886 21.6189V25.7337C99.4879 25.8114 99.4976 25.8889 99.5174 25.9641L99.5618 26.1333C99.648 26.4239 99.8209 26.6814 100.057 26.8713H97.0802C97.2835 26.7331 97.4449 26.5417 97.547 26.3181C97.6405 26.0149 97.6811 25.6978 97.667 25.3809V21.3405C97.5782 20.5509 97.0606 20.1565 96.1142 20.1573C95.479 20.1573 95.0054 20.3209 94.6934 20.6481C94.5474 20.7756 94.4408 20.9421 94.3862 21.1281C94.325 21.4442 94.3004 21.7663 94.313 22.0881V25.3761C94.3026 25.6751 94.3432 25.9738 94.433 26.2593C94.5331 26.4988 94.694 26.7081 94.8998 26.8665H91.9646C92.047 26.7912 92.1247 26.7111 92.1974 26.6265C92.2331 26.5854 92.2656 26.5417 92.2946 26.4957C92.3698 26.3944 92.4256 26.2801 92.459 26.1585L92.5046 25.7601V20.6937C92.5186 20.366 92.4843 20.0381 92.4026 19.7205C92.3005 19.478 92.1336 19.2683 91.9202 19.1145Z" fill="white"/>
<path d="M108.064 23.0696H102.48C102.496 23.3434 102.536 23.6152 102.6 23.882C102.666 24.0953 102.754 24.3008 102.864 24.4952C103.39 25.3944 104.23 25.844 105.384 25.844C105.864 25.8432 106.34 25.7549 106.788 25.5836C106.983 25.5151 107.173 25.435 107.358 25.3436C107.533 25.2556 107.777 25.12 108.089 24.9368L106.952 26.8688C106.673 26.9719 106.385 27.0486 106.092 27.098C105.792 27.1414 105.49 27.1618 105.187 27.1592C103.786 27.1592 102.664 26.776 101.819 26.0096C100.974 25.2432 100.551 24.2264 100.55 22.9592C100.55 21.784 100.93 20.8084 101.688 20.0324C102.446 19.2564 103.399 18.868 104.545 18.8672C105.683 18.8672 106.556 19.2248 107.164 19.94C107.772 20.6552 108.072 21.6984 108.064 23.0696ZM104.455 20.0348C104.007 20.016 103.57 20.1757 103.24 20.4788C102.928 20.7748 102.722 21.204 102.624 21.7664H106.124C106.135 21.5361 106.099 21.3061 106.018 21.0902C105.938 20.8743 105.814 20.6769 105.655 20.51C105.499 20.3524 105.311 20.2289 105.105 20.1471C104.898 20.0653 104.677 20.0271 104.455 20.0348Z" fill="white"/>
<path d="M48.1008 41.3432C48.2397 41.2403 48.3691 41.1251 48.4872 40.9988C48.5727 40.9032 48.6464 40.7976 48.7068 40.6844C48.8105 40.4694 48.8627 40.2332 48.8592 39.9944V31.6713C48.8654 31.4372 48.8203 31.2045 48.7272 30.9897C48.5896 30.7312 48.4127 30.4956 48.2028 30.2913H51.4248C52.5528 30.2913 53.462 30.4397 54.1524 30.7365C54.5611 30.9145 54.9101 31.206 55.158 31.5765C55.4028 31.9552 55.5282 32.3988 55.518 32.8497C55.5272 33.1088 55.4842 33.3671 55.3916 33.6093C55.2991 33.8515 55.1589 34.0727 54.9792 34.2597C54.8477 34.4084 54.6953 34.5373 54.5268 34.6425C54.3097 34.7684 54.0801 34.8714 53.8416 34.9497C54.1491 34.9909 54.4518 35.0624 54.7452 35.1633C54.978 35.2568 55.1947 35.3864 55.3872 35.5473C56.0576 36.0785 56.3928 36.8089 56.3928 37.7385C56.3927 38.1196 56.3286 38.4981 56.2032 38.8581C56.0788 39.2219 55.8969 39.5634 55.6644 39.8696C55.2344 40.4054 54.6558 40.8023 54.0012 41.0108C53.33 41.2316 52.392 41.3416 51.1872 41.3408L48.1008 41.3432ZM50.7408 31.5177V34.7985C50.896 34.824 51.0528 34.8393 51.21 34.8441C52.0412 34.8441 52.6276 34.6841 52.9692 34.3641C53.1337 34.2086 53.2643 34.0208 53.3527 33.8124C53.4411 33.604 53.4854 33.3796 53.4828 33.1533C53.4828 32.6221 53.3116 32.2081 52.9692 31.9113C52.6268 31.6145 52.1384 31.4665 51.504 31.4673L50.7408 31.5177ZM50.7408 35.9169V39.8768C50.9736 39.9421 51.21 39.9934 51.4488 40.0304C51.6448 40.0526 51.842 40.0626 52.0392 40.0604C52.7296 40.0604 53.2984 39.8604 53.7456 39.4604C54.1106 39.1202 54.343 38.6616 54.4017 38.1662C54.4604 37.6707 54.3414 37.1705 54.066 36.7545C53.8229 36.4163 53.4701 36.1728 53.0676 36.0657C52.5954 35.9321 52.1063 35.8675 51.6156 35.8737L50.7408 35.9169Z" fill="white"/>
<path d="M57.7537 35.3602L58.9789 33.5218C59.3101 33.4402 59.5501 33.3886 59.6989 33.3682C59.9288 33.3435 60.1601 33.3331 60.3913 33.337C61.3729 33.337 62.1213 33.557 62.6365 33.997C62.8445 34.1615 63.0055 34.378 63.1033 34.6246C63.1717 34.8298 63.2053 35.197 63.2053 35.7286V38.9626C63.1932 39.2077 63.2178 39.4532 63.2785 39.691C63.338 39.8437 63.4528 39.9683 63.6001 40.0402C63.8326 40.1463 64.0877 40.1937 64.3429 40.1782H64.6645L63.7201 41.509C63.5644 41.5571 63.4029 41.5837 63.2401 41.5882C62.7767 41.5911 62.3291 41.4197 61.9861 41.1082C61.6165 40.7826 61.4317 40.4186 61.4317 40.0162V37.4002L61.0081 37.5382L60.3229 37.6918C59.8726 37.7987 59.4371 37.9599 59.0257 38.1718C58.7041 38.3662 58.5457 38.677 58.5457 39.1066C58.538 39.2765 58.571 39.4459 58.642 39.6006C58.713 39.7552 58.8198 39.8907 58.9537 39.9958C59.2257 40.2102 59.5949 40.3174 60.0613 40.3174C60.2353 40.3179 60.4089 40.3014 60.5797 40.2682C60.819 40.2172 61.055 40.1519 61.2865 40.0726L60.4081 41.3722C60.1553 41.4442 59.9341 41.4982 59.7445 41.5342C59.5741 41.5682 59.401 41.5863 59.2273 41.5882C58.896 41.5889 58.5681 41.5211 58.2643 41.3889C57.9605 41.2567 57.6874 41.0631 57.4621 40.8202C57.2202 40.5873 57.0282 40.3076 56.8978 39.9981C56.7675 39.6887 56.7014 39.3559 56.7037 39.0202C56.7037 37.8538 57.5437 37.1114 59.2237 36.793L60.0841 36.6094C60.5697 36.5174 60.9073 36.4018 61.0969 36.2626C61.1897 36.1957 61.2644 36.1066 61.3141 36.0035C61.3638 35.9004 61.3869 35.7865 61.3813 35.6722C61.3876 35.5389 61.3611 35.4061 61.3039 35.2856C61.2468 35.165 61.1608 35.0604 61.0537 34.981C60.7896 34.8036 60.4749 34.7172 60.1573 34.735C59.9076 34.7411 59.6589 34.7668 59.4133 34.8118C59.0437 34.903 58.7833 34.9726 58.6333 35.0182C58.4833 35.0638 58.1917 35.1814 57.7537 35.3602Z" fill="white"/>
<path d="M64.2876 33.5877L64.8552 33.6021L65.556 33.5589C65.7255 33.5344 65.8934 33.4999 66.0588 33.4557C66.1992 33.4173 66.4068 33.3537 66.6792 33.2649V34.3449C66.9594 33.9982 67.3154 33.7206 67.7199 33.5333C68.1244 33.3461 68.5664 33.2542 69.012 33.2649C70.908 33.2649 71.856 34.2069 71.856 36.0909V40.2069C71.8555 40.2846 71.8652 40.3621 71.8848 40.4373C71.904 40.5093 71.9184 40.5657 71.928 40.6065C72.0153 40.8967 72.1885 41.1536 72.4248 41.3433H69.4488C69.6527 41.2057 69.8143 41.0142 69.9156 40.7901C70.01 40.4871 70.0507 40.1699 70.0356 39.8529V35.8125C69.9468 35.0245 69.4292 34.6301 68.4828 34.6293C67.8484 34.6293 67.3748 34.7933 67.062 35.1213C66.9159 35.2489 66.809 35.4154 66.7536 35.6013C66.6937 35.9176 66.6695 36.2396 66.6816 36.5613V39.8493C66.671 40.1484 66.7116 40.4471 66.8016 40.7325C66.901 40.9725 67.062 41.182 67.2684 41.3397H64.3308C64.4135 41.2651 64.4908 41.1849 64.5624 41.0997C64.5985 41.0591 64.6314 41.0158 64.6608 40.9701C64.7354 40.8684 64.7911 40.7542 64.8252 40.6329L64.8708 40.2333V35.1657C64.8848 34.838 64.8504 34.5101 64.7688 34.1925C64.6673 33.9503 64.5007 33.741 64.2876 33.5877Z" fill="white"/>
<path d="M73.0225 30.307L73.5913 30.3226C74.2034 30.3098 74.8092 30.1959 75.3841 29.9854V40.2093C75.3927 40.344 75.4148 40.4775 75.4501 40.6077C75.4778 40.7496 75.5272 40.8864 75.5965 41.0133C75.6871 41.1404 75.7977 41.2518 75.9241 41.3433H73.0369C73.2128 41.1866 73.3479 40.9893 73.4305 40.7685C73.5103 40.4714 73.5447 40.1639 73.5325 39.8565V31.7169C73.5467 31.4206 73.5172 31.1238 73.4449 30.8361C73.354 30.6251 73.2082 30.4423 73.0225 30.307ZM75.4369 36.9069L77.2369 34.7985C77.5201 34.4833 77.6617 34.2033 77.6617 33.9585C77.6617 33.8385 77.5789 33.6885 77.4145 33.5145H80.1553L77.3677 36.7761L80.3569 40.4853C80.6487 40.8359 81.0051 41.1272 81.4069 41.3433H79.4653C79.1914 41.3598 78.9177 41.307 78.6697 41.1897C78.4897 41.0881 78.2829 40.8733 78.0493 40.5453L75.4369 36.9069Z" fill="white"/>
<path d="M34.1999 18.3621H43.2791C43.2892 18.3623 43.2992 18.3648 43.3082 18.3694C43.3172 18.374 43.325 18.3807 43.331 18.3888C43.337 18.3969 43.3411 18.4063 43.3429 18.4162C43.3448 18.4262 43.3443 18.4364 43.3415 18.4461L41.2319 25.6641C41.2278 25.6776 41.2196 25.6893 41.2084 25.6977C41.1972 25.7062 41.1835 25.7108 41.1695 25.7109H31.1375C31.1233 25.7111 31.1092 25.7076 31.0967 25.7009C31.0841 25.6941 31.0735 25.6842 31.0659 25.6722C31.0582 25.6602 31.0537 25.6465 31.0528 25.6322C31.0519 25.618 31.0546 25.6038 31.0607 25.5909L34.1375 18.3981C34.1431 18.3865 34.152 18.3769 34.1631 18.3704C34.1743 18.364 34.1871 18.3611 34.1999 18.3621Z" fill="#78C2ED" stroke="white" stroke-width="1.18823" stroke-miterlimit="10"/>
<path d="M41.2801 25.8045L43.3801 18.5601C43.3813 18.5542 43.3846 18.5489 43.3893 18.5452C43.394 18.5414 43.3998 18.5393 43.4059 18.5393C43.4119 18.5393 43.4177 18.5414 43.4224 18.5452C43.4271 18.5489 43.4304 18.5542 43.4317 18.5601L45.5917 26.2725C45.5929 26.2772 45.5929 26.2822 45.5917 26.2869L43.4917 33.5337C43.4904 33.5396 43.4871 33.5449 43.4824 33.5487C43.4777 33.5524 43.4719 33.5545 43.4659 33.5545C43.4598 33.5545 43.454 33.5524 43.4493 33.5487C43.4446 33.5449 43.4413 33.5396 43.4401 33.5337L41.2801 25.8201C41.2789 25.815 41.2789 25.8096 41.2801 25.8045Z" fill="#123F76" stroke="white" stroke-width="1.19456" stroke-miterlimit="10"/>
<path d="M41.16 25.7816L31.08 25.7384C31.0729 25.7383 31.0659 25.74 31.0597 25.7432C31.0534 25.7464 31.048 25.7512 31.044 25.757C31.0399 25.7628 31.0374 25.7695 31.0366 25.7765C31.0357 25.7835 31.0366 25.7906 31.0392 25.7972L33.9276 33.7652C33.9304 33.7737 33.9359 33.7811 33.9432 33.7863C33.9506 33.7915 33.9594 33.7942 33.9684 33.794L43.3368 33.6104C43.3435 33.6105 43.3502 33.6091 43.3562 33.6061C43.3622 33.6032 43.3675 33.5988 43.3715 33.5934C43.3755 33.588 43.3781 33.5817 43.3792 33.575C43.3802 33.5684 43.3797 33.5616 43.3776 33.5552L41.202 25.8128C41.199 25.8039 41.1934 25.7962 41.1859 25.7906C41.1784 25.785 41.1693 25.7819 41.16 25.7816Z" fill="#0F9CDA" stroke="white" stroke-width="1.18823" stroke-miterlimit="10"/>
</svg>
